<?xml version="1.0" standalone="no"?>
<!DOCTYPE svg PUBLIC "-//W3C//DTD SVG 1.1//EN" "http://www.w3.org/Graphics/SVG/1.1/DTD/svg11.dtd" >
<svg xmlns="http://www.w3.org/2000/svg">
<metadata></metadata>
<defs>
<font id="reservation_wideblack" horiz-adv-x="1777" >
<font-face units-per-em="2048" ascent="2048" descent="0" />
<missing-glyph horiz-adv-x="614" />
<glyph horiz-adv-x="0" />
<glyph horiz-adv-x="682" />
<glyph unicode=" "  horiz-adv-x="614" />
<glyph unicode="&#x09;" horiz-adv-x="614" />
<glyph unicode="&#xa0;" horiz-adv-x="614" />
<glyph unicode="!" horiz-adv-x="684" d="M133 168q0 78 57 133t152 55q94 0 151.5 -55t57.5 -133q0 -79 -57.5 -133.5t-151.5 -54.5q-95 0 -152 54.5t-57 133.5zM135 1495h410l-64 -1034h-282z" />
<glyph unicode="&#x22;" horiz-adv-x="944" d="M82 1495h354l-63 -508h-230zM510 1495h352l-61 -508h-230z" />
<glyph unicode="#" horiz-adv-x="1648" d="M123 383v235h254v173h-254v235h254v244h305v-244h229v244h306v-244h256v-235h-256v-173h256v-235h-256v-240h-306v240h-229v-240h-305v240h-254zM682 618h229v173h-229v-173z" />
<glyph unicode="$" horiz-adv-x="1671" d="M82 397l305 74q55 -177 291 -205v334q-59 7 -108 15.5t-110 24.5t-109 36t-96 51.5t-80 69.5t-51.5 92t-19.5 117q0 86 36.5 157.5t94 118.5t136 82.5t153 54t154.5 27.5v151h326v-153q206 -20 345 -111.5t207 -275.5l-309 -78q-32 77 -95 124.5t-148 61.5v-331 q54 -6 96.5 -13t99 -18t99.5 -26.5t90 -37t81 -51.5t62 -67t42.5 -86t14.5 -107q0 -407 -585 -444v-148h-326v148q-113 8 -203 31.5t-170.5 69.5t-137.5 124.5t-85 187.5zM436 1016q0 -37 25.5 -65t67.5 -44t76.5 -24t72.5 -13v301q-242 -35 -242 -155zM1004 260 q258 20 258 166q0 30 -19 53.5t-44 37t-63.5 23.5t-63.5 14t-59 8q-6 1 -9 1v-303z" />
<glyph unicode="%" horiz-adv-x="2043" d="M82 1085q0 92 34.5 164t95 116t136.5 66.5t164 22.5t164 -22.5t136.5 -66.5t95 -116t34.5 -164q0 -91 -35.5 -161.5t-97 -112.5t-136.5 -63t-161 -21t-161 21t-136.5 63t-97 112.5t-35.5 161.5zM270 0l1106 1434h400l-1117 -1434h-389zM367 1087q0 -112 145 -112 q147 0 147 112q0 119 -147 119q-145 0 -145 -119zM1102 338q0 92 34.5 164t95 116t136.5 66.5t164 22.5t164 -22.5t136.5 -66.5t95 -116t34.5 -164q0 -91 -35.5 -161.5t-97 -112.5t-136.5 -63t-161 -21t-161 21t-136.5 63t-97 112.5t-35.5 161.5zM1386 340q0 -113 146 -113 q73 0 110 29.5t37 83.5q0 119 -147 119q-146 0 -146 -119z" />
<glyph unicode="&#x26;" horiz-adv-x="1779" d="M102 399q0 70 24 131t69 108.5t95 83t116 69.5q-150 150 -150 284q0 115 66 203.5t166 132t212 43.5q117 0 218 -41.5t168 -129.5t67 -208q0 -62 -20 -114.5t-59 -93t-82 -70.5t-101 -60l323 -288q85 98 148 266l309 -78q-92 -237 -233 -387l280 -250h-454l-76 70 q-202 -93 -483 -93q-74 0 -142 8t-138 25.5t-126.5 50t-101.5 77.5t-70 112t-25 149zM459 418q0 -46 28 -79.5t72.5 -50t87.5 -23.5t86 -7q122 0 219 27l-350 319q-143 -77 -143 -186zM580 1061q0 -10 3.5 -20.5t7.5 -19t13 -20t15 -18.5t17.5 -18.5t17 -16t18 -15.5 t14.5 -13q31 16 46.5 25t43 28.5t40.5 41t13 46.5q0 54 -36 80t-91 26q-54 0 -88 -26.5t-34 -79.5z" />
<glyph unicode="'" horiz-adv-x="559" d="M102 1495h355l-60 -508h-237z" />
<glyph unicode="(" horiz-adv-x="874" d="M102 694q0 265 99 508.5t276 452.5l268 -148q-138 -180 -211 -377.5t-73 -435.5q0 -240 72 -436t212 -379l-268 -145q-175 206 -275 451t-100 509z" />
<glyph unicode=")" horiz-adv-x="874" d="M82 -125q163 179 247.5 369t84.5 424t-85.5 425t-246.5 367l313 80q377 -402 377 -872q0 -238 -101 -462t-276 -411z" />
<glyph unicode="*" horiz-adv-x="1021" d="M82 1079l88 273l264 -156l-67 299h288l-67 -299l262 156l90 -273l-305 -28l229 -203l-231 -168l-123 281l-121 -281l-231 168l229 203z" />
<glyph unicode="+" horiz-adv-x="1187" d="M123 428v266h338v338h266v-338h338v-266h-338v-338h-266v338h-338z" />
<glyph unicode="," horiz-adv-x="593" d="M94 172q0 78 57 133t152 55q94 0 151.5 -55t57.5 -133q0 -131 -58 -230.5t-178 -179.5l-86 101q94 59 113 121q-95 0 -152 54.5t-57 133.5z" />
<glyph unicode="-" horiz-adv-x="1085" d="M123 408v307h840v-307h-840z" />
<glyph unicode="." horiz-adv-x="593" d="M88 168q0 78 57 133t152 55q94 0 151.5 -55t57.5 -133q0 -79 -57.5 -133.5t-151.5 -54.5q-95 0 -152 54.5t-57 133.5z" />
<glyph unicode="/" horiz-adv-x="1202" d="M61 -61l705 1556h375l-715 -1556h-365z" />
<glyph unicode="0" horiz-adv-x="1800" d="M82 719q0 181 63 324.5t174 234.5t258.5 138.5t321.5 47.5t322 -47.5t259.5 -138.5t174.5 -234.5t63 -324.5q0 -186 -61.5 -330.5t-172 -235.5t-258.5 -137.5t-327 -46.5t-327 46.5t-258 137.5t-171 235.5t-61 330.5zM442 719q0 -218 117.5 -328t339.5 -110t340.5 110.5 t118.5 327.5q0 215 -119 324.5t-340 109.5t-339 -109t-118 -325z" />
<glyph unicode="1" horiz-adv-x="1005" d="M4 1190l510 244h287v-1434h-359v1092l-325 -156z" />
<glyph unicode="2" horiz-adv-x="1660" d="M102 0q-1 128 27 234t66 178t111.5 133t126 94.5t150.5 66.5t145 44.5t145 32.5q82 18 121 28t88.5 28.5t69 43t19.5 57.5q0 56 -33 98.5t-85.5 65t-105.5 33t-105 10.5q-333 0 -398 -213l-327 82q24 95 78 171t125 125t159.5 82t177.5 46.5t183 13.5q102 0 198 -16 t188.5 -54.5t161 -96t110.5 -147t42 -200.5q0 -105 -52.5 -183t-137.5 -123t-188.5 -77.5t-210.5 -55.5t-198.5 -46t-157 -60t-81.5 -88h1045v-307h-1457z" />
<glyph unicode="3" horiz-adv-x="1642" d="M92 389l326 82q15 -38 38.5 -68t46 -49t58.5 -32.5t61.5 -20t70 -10t69.5 -4t74 -0.5q35 0 58.5 0.5t65 4t70 10t62.5 19t54.5 30.5t35 46t14.5 64q0 40 -18 70t-48 46t-63.5 23.5t-71.5 7.5h-333v256h333q64 0 103 28.5t39 90.5q0 52 -34.5 87t-91.5 50.5t-104.5 21 t-97.5 5.5q-317 0 -385 -191l-313 76q27 90 81 162.5t123 120t153.5 79.5t171 46t177.5 14q77 0 153 -10t155 -31.5t145 -58.5t118.5 -87.5t82.5 -123.5t30 -160q0 -64 -31.5 -124.5t-83.5 -102.5q79 -43 127 -123.5t48 -171.5q0 -80 -25 -147.5t-67 -116t-101 -86.5 t-124 -62.5t-138.5 -40t-141.5 -22t-137 -6.5q-105 0 -190.5 9.5t-174 36.5t-156 71.5t-124 118.5t-90.5 173z" />
<glyph unicode="4" horiz-adv-x="1697" d="M61 260v258l924 916h397v-867h254v-307h-254v-260h-358v260h-963zM539 567h485v482z" />
<glyph unicode="5" horiz-adv-x="1630" d="M102 399l332 82q20 -61 59.5 -101.5t94 -59.5t106 -26t119.5 -7q375 0 375 211q0 204 -365 204q-97 0 -202 -28t-191 -76l-301 61l82 775h1200v-308h-901l-27 -211q157 74 396 74q101 0 192.5 -15t180 -51t153 -91t104 -142t39.5 -196q0 -115 -45 -205.5t-117.5 -147.5 t-170 -94t-196 -52t-202.5 -15q-78 0 -141 4t-129.5 16t-119 31.5t-104 51.5t-91 75.5t-73.5 104t-57 136.5z" />
<glyph unicode="6" horiz-adv-x="1687" d="M82 696q0 354 207.5 556t562.5 202q88 0 168.5 -10t166.5 -36t153 -66.5t120.5 -108t77.5 -154.5l-328 -82q-11 42 -41.5 72t-64 44.5t-85.5 22.5t-84 9.5t-81 1.5q-81 0 -148.5 -15.5t-125.5 -49.5t-95 -94t-47 -142q202 100 428 100q67 0 132.5 -5.5t140.5 -19 t140 -35.5t126.5 -57.5t105 -81t69.5 -110t26 -141.5q0 -97 -32.5 -177.5t-90 -135.5t-130 -95.5t-159.5 -63.5t-171 -33.5t-171 -10.5q-359 0 -564.5 181t-205.5 535zM465 487q0 -58 42 -100t107 -62t124.5 -29t113.5 -9q53 0 115.5 10.5t130 33t111.5 66t44 101.5 q0 176 -401 176q-51 0 -109.5 -8t-125 -26.5t-109.5 -58t-43 -94.5z" />
<glyph unicode="7" horiz-adv-x="1538" d="M61 1126v308h1416v-271l-732 -1163h-426l719 1126h-977z" />
<glyph unicode="8" horiz-adv-x="1650" d="M82 444q0 96 58.5 179t148.5 120q-70 33 -116 102.5t-46 145.5q0 77 23.5 142t63 112t95 84t117 60.5t131.5 39t135.5 21.5t132.5 6q96 0 187.5 -12.5t186.5 -45.5t165 -83.5t115 -134t45 -189.5q0 -77 -46 -145.5t-116 -102.5q90 -37 148.5 -120t58.5 -179 q0 -467 -744 -467q-743 0 -743 467zM438 451q0 -166 385 -166q43 0 83.5 2t99.5 12t101.5 26.5t73.5 49t31 76.5q0 39 -20 69.5t-55.5 49t-73.5 31t-86.5 17.5t-81.5 7t-70 2t-70 -2t-81.5 -7t-86.5 -17.5t-73.5 -31t-55.5 -49t-20 -69.5zM481 989q0 -44 39.5 -74.5t102 -43 t109.5 -17t93 -4.5t93 4.5t109.5 17t102 43t39.5 74.5q0 37 -17 65.5t-49 45.5t-64.5 27.5t-77.5 15t-72.5 5.5t-65.5 1q-342 0 -342 -160z" />
<glyph unicode="9" horiz-adv-x="1681" d="M82 938q0 83 25 154.5t67 123.5t101.5 93.5t126 68t142 44t147.5 25t145 7.5q356 0 559.5 -188.5t203.5 -542.5t-203.5 -548.5t-559.5 -194.5q-95 0 -176.5 8t-171.5 32.5t-158.5 64.5t-125 108.5t-83.5 160.5l338 86q16 -43 49 -73.5t67 -45.5t86.5 -23t86 -9.5 t86.5 -1.5q79 0 148 17t127.5 52.5t95 97t42.5 142.5q-198 -109 -426 -109q-66 0 -131.5 5.5t-140 19.5t-140 36t-126.5 58t-105 81.5t-70 109.5t-26 141zM434 938q0 -48 31 -83.5t73.5 -53.5t102.5 -29t102 -13.5t88 -2.5q51 0 108 7.5t122.5 25t108 56t42.5 91.5 q0 51 -28 90t-69.5 61.5t-96.5 36.5t-101 18.5t-92 4.5q-60 0 -119 -8.5t-124.5 -29t-106.5 -64.5t-41 -107z" />
<glyph unicode=":" horiz-adv-x="593" d="M88 168q0 78 57 133t152 55q94 0 151.5 -55t57.5 -133q0 -79 -57.5 -133.5t-151.5 -54.5q-95 0 -152 54.5t-57 133.5zM88 805q0 78 57 133t152 55q94 0 151.5 -55t57.5 -133q0 -79 -57.5 -134t-151.5 -55q-95 0 -152 55t-57 134z" />
<glyph unicode=";" horiz-adv-x="593" d="M88 168q0 78 57 133t152 55q94 0 151.5 -55t57.5 -133q0 -131 -58 -230.5t-178 -179.5l-86 101q94 59 113 121q-95 0 -152 54.5t-57 133.5zM88 805q0 78 57 133t152 55q94 0 151.5 -55t57.5 -133q0 -79 -57.5 -134t-151.5 -55q-95 0 -152 55t-57 134z" />
<glyph unicode="&#x3c;" horiz-adv-x="1361" d="M123 567v299l1116 586v-354l-766 -381l766 -381v-354z" />
<glyph unicode="=" horiz-adv-x="1187" d="M123 203v266h942v-266h-942zM123 649v266h942v-266h-942z" />
<glyph unicode="&#x3e;" horiz-adv-x="1361" d="M123 -18v354l766 381l-766 381v354l1116 -586v-299z" />
<glyph unicode="?" horiz-adv-x="1593" d="M82 1053q23 90 77 161.5t124.5 115.5t160 72.5t175.5 40t178 11.5q77 0 151.5 -8t155.5 -26.5t148 -53t122 -82.5t86 -121t31 -162q0 -56 -11.5 -101t-30.5 -75.5t-49.5 -55t-61 -38.5t-72.5 -27t-78 -21t-83 -20t-81 -24q-86 -28 -112 -68t-29 -135h-267q-16 71 -16 166 q0 64 22.5 111.5t59.5 74.5t84.5 47t96.5 29.5t96.5 21t84.5 22.5t59.5 33t22.5 54q0 41 -27 70.5t-63 45t-87 24t-84.5 10.5t-69.5 2q-321 0 -371 -180zM545 168q0 78 57 133t152 55q94 0 151.5 -55t57.5 -133q0 -79 -57.5 -133.5t-151.5 -54.5q-95 0 -152 54.5t-57 133.5z " />
<glyph unicode="@" horiz-adv-x="1929" d="M82 561q0 147 47.5 272t130.5 214t195.5 151.5t242 92.5t269.5 30q141 0 270 -30t240.5 -92.5t193.5 -151t129 -213.5t47 -273q0 -147 -47 -271.5t-129.5 -213.5t-194 -151t-240.5 -92t-269 -30t-269.5 30t-242 92t-195.5 150.5t-130.5 213t-47.5 272.5zM338 561 q0 -134 50 -239.5t137.5 -170t199.5 -98t242 -33.5t241.5 33.5t197.5 98t135.5 170t49.5 239.5t-49.5 239.5t-135.5 170t-197.5 98t-241.5 33.5q-104 0 -196.5 -20t-172.5 -63t-137.5 -105.5t-90 -152.5t-32.5 -200zM489 551q0 177 115.5 274t294.5 97q136 0 225 -80v51h244 v-676h-244v43q-87 -76 -221 -76q-184 0 -299 93.5t-115 273.5zM733 549q0 -86 57.5 -126t147.5 -40q80 0 133 43.5t53 122.5q0 80 -53 127t-133 47q-91 0 -148 -42.5t-57 -131.5z" />
<glyph unicode="A" d="M0 0l700 1434h379l699 -1434h-404l-145 307h-680l-146 -307h-403zM682 608h414l-205 453z" />
<glyph unicode="B" horiz-adv-x="1722" d="M123 0v1434h960q110 0 202 -26t162 -77t109 -134t39 -191q0 -71 -35 -135t-92 -103q96 -41 149.5 -120.5t53.5 -192.5q0 -224 -136.5 -339.5t-363.5 -115.5h-1048zM485 307h641q179 0 179 150q0 70 -45.5 103.5t-112.5 33.5h-662v-287zM485 858h605q61 0 98 37.5t37 99.5 q0 66 -46.5 98.5t-115.5 32.5h-578v-268z" />
<glyph unicode="C" horiz-adv-x="1751" d="M61 719q0 151 44 274.5t122 209t186.5 143.5t235.5 85t271 27q182 0 327.5 -49t259.5 -160t176 -280l-342 -82q-47 135 -157.5 199.5t-261.5 64.5q-108 0 -196 -25t-156 -76t-105 -135.5t-37 -195.5q0 -112 37 -196.5t104 -136.5t156 -77.5t197 -25.5q70 0 132 11 t121.5 36t105.5 71.5t71 110.5l338 -82q-179 -455 -770 -455q-182 0 -335 44.5t-271.5 133t-185.5 233.5t-67 333z" />
<glyph unicode="D" horiz-adv-x="1757" d="M123 0v1434h725q143 0 266.5 -24t231.5 -78.5t185 -136t121 -203t44 -273.5q0 -147 -40.5 -267t-113 -203.5t-174.5 -140t-223 -82.5t-262 -26h-760zM481 307h361q87 0 157.5 11.5t133.5 40.5t105.5 75t67.5 118t25 167t-25 167t-67 117t-106 73t-133.5 39t-157.5 11 h-361v-819z" />
<glyph unicode="E" horiz-adv-x="1617" d="M123 0v1434h1390v-308h-1032v-243h903v-308h-903v-268h1045v-307h-1403z" />
<glyph unicode="F" horiz-adv-x="1533" d="M123 0v1434h1350v-308h-992v-264h862v-307h-862v-555h-358z" />
<glyph unicode="G" horiz-adv-x="1800" d="M61 719q0 151 44 274.5t122 209t186.5 143.5t235.5 85t271 27q127 0 234 -20t205 -65.5t175 -127.5t125 -198l-354 -86q-27 58 -67.5 97t-93 58.5t-104.5 27t-118 7.5q-108 0 -196 -25t-156 -76t-105 -135.5t-37 -195.5q0 -112 37 -196.5t104 -136.5t156 -77.5t197 -25.5 q129 0 233 23t184 87v152h-442v297h801v-842h-359v84q-71 -59 -186 -84t-233 -25q-182 0 -335 44.5t-271.5 133t-185.5 233.5t-67 333z" />
<glyph unicode="H" horiz-adv-x="1787" d="M123 0v1434h369v-551h804v551h369v-1434h-369v575h-804v-575h-369z" />
<glyph unicode="I" horiz-adv-x="624" d="M133 0v1434h359v-1434h-359z" />
<glyph unicode="J" horiz-adv-x="1454" d="M41 428l336 82q25 -117 98 -170t213 -53q168 0 229.5 74.5t61.5 244.5v828h352v-846q0 -312 -154 -460t-491 -148q-280 0 -436.5 106.5t-208.5 341.5z" />
<glyph unicode="K" horiz-adv-x="1771" d="M123 0v1434h358v-531l693 531h491l-803 -609l910 -825h-498l-678 633l-115 -88v-545h-358z" />
<glyph unicode="L" horiz-adv-x="1409" d="M123 0v1434h358v-1127h867v-307h-1225z" />
<glyph unicode="M" horiz-adv-x="2070" d="M123 0v1434h530l348 -947l35 -104l33 104l348 947h531v-1434h-359v1057l-45 -144l-346 -913h-328l-342 909l-47 148v-1057h-358z" />
<glyph unicode="N" horiz-adv-x="1802" d="M123 0v1434h469l682 -973q10 -14 22 -35t18 -35l7 -14v1057h358v-1434h-469l-682 973q-10 14 -22 35t-18 35l-7 14v-1057h-358z" />
<glyph unicode="O" horiz-adv-x="1847" d="M61 719q0 149 44.5 272.5t123.5 210.5t187.5 146.5t235.5 87.5t270 28t270.5 -28t237 -87.5t188.5 -146t123.5 -210t44.5 -273.5q0 -151 -44.5 -275t-123.5 -211.5t-188 -147.5t-236.5 -88t-271.5 -28t-271.5 28.5t-236 88.5t-187 147.5t-122.5 211.5t-44 274zM424 719 q0 -113 37 -198.5t104.5 -137t157 -77t199.5 -25.5t199.5 25.5t157.5 77t105 137t37 198.5t-37.5 197.5t-105.5 135.5t-157 76t-199 25q-228 0 -363 -106.5t-135 -327.5z" />
<glyph unicode="P" horiz-adv-x="1632" d="M123 0v1434h942q106 0 199 -29t167 -85t117 -148t43 -209q0 -88 -29 -164.5t-79 -132t-116 -95t-141.5 -59.5t-154.5 -20h-590v-492h-358zM481 799h578q73 0 123.5 45.5t50.5 118.5q0 77 -50.5 120t-129.5 43h-572v-327z" />
<glyph unicode="Q" horiz-adv-x="1837" d="M61 719q0 149 44.5 272t122.5 209t186.5 145t235 87t268.5 28q180 0 332.5 -45t271.5 -133.5t186.5 -232.5t67.5 -330q0 -287 -160 -477l242 -242h-379l-78 78q-205 -105 -483 -105q-143 0 -270 28t-235 88t-186 146.5t-122 210.5t-44 273zM420 719q0 -113 37 -198.5 t104.5 -137t157 -77t199.5 -25.5q142 0 241 38l-285 285h377l115 -112q51 94 51 227q0 113 -37.5 197.5t-105.5 135.5t-157 76t-199 25q-228 0 -363 -106.5t-135 -327.5z" />
<glyph unicode="R" horiz-adv-x="1712" d="M123 0v1434h983q110 0 205 -30.5t167 -88.5t113 -148.5t41 -203.5q0 -149 -81.5 -262.5t-221.5 -168.5l363 -532h-420l-332 492h-459v-492h-358zM481 799h619q73 0 123.5 46t50.5 118q0 77 -51 120t-129 43h-613v-327z" />
<glyph unicode="S" horiz-adv-x="1654" d="M51 416l338 84q37 -129 151.5 -178.5t338.5 -49.5q360 0 360 162q0 39 -39.5 64.5t-106 38.5t-153 21.5t-181.5 18.5t-190.5 24.5t-182 44.5t-153 73t-106 115t-39.5 167q0 103 44 184.5t114.5 132t167.5 83.5t193.5 46t201.5 13q93 0 168.5 -6.5t156 -22.5t145.5 -46 t124 -75t104.5 -113t75.5 -155l-344 -84q-38 109 -148.5 156t-287.5 47q-61 0 -116 -6.5t-109.5 -22t-86.5 -47t-32 -75.5q0 -41 39 -68t105.5 -40.5t152.5 -22t181 -18t189.5 -23.5t180.5 -43t152.5 -72.5t105.5 -116t39 -168.5q0 -85 -25 -154t-66.5 -116.5t-103 -83.5 t-125.5 -56.5t-144.5 -33.5t-150 -17t-149.5 -4q-83 0 -149.5 3.5t-142.5 15t-136 31t-120 53.5t-104.5 79.5t-80.5 111.5t-56 149z" />
<glyph unicode="T" horiz-adv-x="1597" d="M51 1126v308h1495v-308h-563v-1126h-369v1126h-563z" />
<glyph unicode="U" horiz-adv-x="1757" d="M113 678v756h358v-762q0 -213 88.5 -299t317.5 -86t319 86.5t90 298.5v762h359v-756q0 -192 -47 -326t-145 -216t-238.5 -119t-337.5 -37q-392 0 -578 162.5t-186 535.5z" />
<glyph unicode="V" horiz-adv-x="1818" d="M20 1434h412l318 -684q133 -287 161 -357q79 179 162 357l313 684h412l-698 -1434h-379z" />
<glyph unicode="W" horiz-adv-x="2361" d="M41 1434h395l256 -1039l287 1039h405l285 -1039l256 1039h395l-409 -1434h-451l-225 825l-55 219l-54 -219l-221 -825h-452z" />
<glyph unicode="X" horiz-adv-x="1785" d="M0 0l664 731l-631 703h444l416 -476l416 476h446l-633 -703l664 -731h-445l-448 500l-447 -500h-446z" />
<glyph unicode="Y" horiz-adv-x="1658" d="M0 1434h418l413 -594l410 594h418l-649 -906v-528h-359v528z" />
<glyph unicode="Z" horiz-adv-x="1658" d="M102 0v266l961 860h-936v308h1432v-267l-959 -860h1008v-307h-1506z" />
<glyph unicode="[" horiz-adv-x="919" d="M143 -348v1843h654v-307h-295v-1229h295v-307h-654z" />
<glyph unicode="\" horiz-adv-x="1202" d="M61 1495h375l705 -1556h-365z" />
<glyph unicode="]" horiz-adv-x="919" d="M123 -41h295v1229h-295v307h653v-1843h-653v307z" />
<glyph unicode="^" horiz-adv-x="1187" d="M82 842l369 592h290l365 -592h-356l-156 270l-156 -270h-356z" />
<glyph unicode="_" horiz-adv-x="1392" d="M143 0v307h1106v-307h-1106z" />
<glyph unicode="`" horiz-adv-x="653" d="M82 1495h303l186 -295h-204z" />
<glyph unicode="a" horiz-adv-x="1427" d="M61 322q0 95 41.5 165t112 108.5t150.5 56.5t170 18h442q0 48 -26 83t-69 53t-86 26t-87 8q-97 0 -166.5 -22.5t-102.5 -88.5l-338 86q32 92 96.5 158t149 100.5t172.5 50t187 15.5q90 0 176.5 -15t169.5 -50t144.5 -86.5t99.5 -131.5t38 -178v-678h-358v82 q-64 -57 -167.5 -82t-191.5 -25q-57 0 -102.5 2t-105.5 10.5t-106 22.5t-94 40.5t-79 62t-50.5 89t-19.5 120.5zM432 350q0 -82 174 -82h53q45 0 91.5 5.5t102 20t90 46.5t34.5 78v22h-385q-160 0 -160 -90z" />
<glyph unicode="b" horiz-adv-x="1513" d="M102 0v1495h359v-481q130 116 366 116q134 0 246.5 -36t197.5 -105.5t133 -181.5t48 -256q0 -143 -48 -253.5t-133 -179t-197.5 -103.5t-246.5 -35q-234 0 -366 112v-92h-359zM461 549q0 -126 89 -197t218 -71q143 0 232.5 65t89.5 203q0 142 -88 211t-234 69 q-129 0 -218 -76t-89 -204z" />
<glyph unicode="c" horiz-adv-x="1406" d="M51 549q0 114 36 209.5t99.5 163.5t149 115.5t184.5 70t207 22.5q478 0 633 -385l-340 -83q-36 84 -115.5 125.5t-177.5 41.5q-141 0 -228 -70.5t-87 -209.5q0 -137 87 -202.5t228 -65.5q234 0 297 172l342 -84q-39 -108 -102.5 -185t-147.5 -121t-179 -63.5t-210 -19.5 q-109 0 -207.5 21t-185 66t-149 110.5t-98.5 161t-36 210.5z" />
<glyph unicode="d" horiz-adv-x="1513" d="M61 551q0 144 48 256t133 181.5t197.5 105.5t246.5 36q237 0 367 -116v481h358v-1495h-358v92q-132 -112 -367 -112q-134 0 -246.5 35t-197.5 103.5t-133 179t-48 253.5zM424 549q0 -138 89 -203t232 -65q129 0 218.5 71t89.5 197q0 128 -89 204t-219 76q-145 0 -233 -69 t-88 -211z" />
<glyph unicode="e" horiz-adv-x="1431" d="M51 547q0 113 35.5 208.5t97 163.5t146 116t182.5 71.5t205 23.5q137 0 256 -37t210.5 -107.5t144 -183.5t52.5 -255v-92h-958q15 -88 94 -139.5t205 -51.5q227 0 289 127l342 -86q-43 -100 -100 -164.5t-138 -99.5t-172.5 -48t-222.5 -13q-137 0 -256.5 35.5t-212 103.5 t-146 178.5t-53.5 249.5zM434 680h557q-29 76 -100 116t-178 40q-98 0 -175 -42t-104 -114z" />
<glyph unicode="f" horiz-adv-x="1130" d="M41 678v307h235v105q0 114 41 198.5t114.5 133t164.5 71.5t201 23q151 0 313 -64l-82 -303q-115 53 -231 53q-162 0 -162 -119v-98h358v-307h-358v-678h-359v678h-235z" />
<glyph unicode="g" horiz-adv-x="1488" d="M41 -47q0 68 38 129.5t99 97.5q-57 50 -57 115q0 43 31.5 82t74.5 59q-127 99 -127 285q0 111 54 194.5t146.5 130t200.5 69t232 22.5q117 0 271 -35q22 91 94 153t164 62q107 0 186 -43l-66 -238q-61 47 -120 47q-57 0 -88 -45q194 -106 194 -319q0 -74 -21 -134.5 t-55.5 -102t-85.5 -72.5t-104.5 -49t-120.5 -28.5t-124 -14t-124 -3.5q-160 0 -287 27q-30 -10 -30 -49q0 -24 26.5 -37.5t69.5 -13.5h492q64 0 120.5 -6.5t117.5 -26t104.5 -50t71.5 -83.5t28 -123q0 -67 -27.5 -121t-70 -89t-107 -60.5t-123 -38.5t-135.5 -20.5t-127 -9 t-113 -1.5t-113 1.5t-127 9t-135 20.5t-123 38.5t-107 60.5t-69.5 89t-27.5 121zM399 -18q0 -26 27.5 -44.5t71 -25.5t75 -9.5t60.5 -2.5h221q29 0 60 2.5t74.5 9.5t71 25.5t27.5 44.5q0 33 -32 48t-80 15h-463q-113 0 -113 -63zM459 711q0 -42 29 -70.5t77 -41t87.5 -17 t80.5 -4.5q38 0 79 5.5t89 18.5t78.5 41t30.5 68q0 41 -30.5 70.5t-78 42.5t-88.5 18.5t-80 5.5q-43 0 -82.5 -4.5t-87 -17.5t-76 -42.5t-28.5 -72.5z" />
<glyph unicode="h" horiz-adv-x="1486" d="M102 0v1495h359v-489q67 60 169.5 92t215.5 32q270 0 409.5 -121t139.5 -380v-629h-359v590q0 233 -239 233q-156 0 -246 -77.5t-90 -233.5v-10v-502h-359z" />
<glyph unicode="i" horiz-adv-x="581" d="M78 1348q0 78 57 133t152 55q94 0 151.5 -55t57.5 -133q0 -79 -57.5 -134t-151.5 -55q-95 0 -152 55t-57 134zM115 0v1110h358v-1110h-358z" />
<glyph unicode="j" horiz-adv-x="665" d="M-246 -344l80 297q56 -25 98.5 -33t110.5 -8q69 0 115.5 27.5t46.5 91.5v1079h358v-1079q0 -114 -41.5 -199.5t-114.5 -135t-164 -73.5t-200 -24q-89 0 -148 11.5t-141 45.5zM166 1348q0 78 57 133t152 55q94 0 151.5 -55t57.5 -133q0 -79 -57.5 -134t-151.5 -55 q-95 0 -152 55t-57 134z" />
<glyph unicode="k" horiz-adv-x="1456" d="M102 0v1495h359v-702l401 317h512l-600 -451l703 -659h-500l-465 465l-51 -39v-426h-359z" />
<glyph unicode="l" horiz-adv-x="563" d="M102 0v1495h359v-1495h-359z" />
<glyph unicode="m" horiz-adv-x="2095" d="M102 0v1110h359v-96q49 57 137 86.5t176 29.5q119 0 198 -31.5t140 -109.5q133 141 395 141q254 0 375 -121.5t121 -385.5v-623h-358v606q0 238 -193 238q-233 0 -233 -287v-557h-332v606q0 238 -191 238q-235 0 -235 -287v-557h-359z" />
<glyph unicode="n" horiz-adv-x="1486" d="M102 0v1110h359v-104q68 60 169 92t214 32q130 0 229 -27t172.5 -85.5t111.5 -156t38 -232.5v-629h-359v588q0 235 -239 235q-156 0 -246 -77.5t-90 -233.5v-10v-502h-359z" />
<glyph unicode="o" horiz-adv-x="1449" d="M41 551q0 117 38.5 215t104 165.5t153.5 114.5t185.5 69t202.5 22t202.5 -22t185.5 -69t153.5 -114.5t104 -165.5t38.5 -215q0 -119 -38.5 -216.5t-103.5 -163.5t-153 -111.5t-185.5 -66t-203.5 -20.5t-203.5 20.5t-185.5 66t-153 111.5t-103.5 163.5t-38.5 216.5z M399 549q0 -130 86 -199t240 -69t240 69t86 199q0 135 -85.5 207.5t-240.5 72.5t-240.5 -72.5t-85.5 -207.5z" />
<glyph unicode="p" horiz-adv-x="1513" d="M102 -385v1495h359v-96q130 116 366 116q134 0 246.5 -36t197.5 -105.5t133 -181.5t48 -256q0 -143 -48 -253.5t-133 -179t-197.5 -103.5t-246.5 -35q-234 0 -366 112v-477h-359zM461 549q0 -126 89 -197t218 -71q143 0 232.5 65t89.5 203q0 142 -88 211t-234 69 q-129 0 -218 -76t-89 -204z" />
<glyph unicode="q" horiz-adv-x="1513" d="M61 551q0 144 48 256t133 181.5t197.5 105.5t246.5 36q237 0 367 -116v96h358v-1495h-358v477q-132 -112 -367 -112q-134 0 -246.5 35t-197.5 103.5t-133 179t-48 253.5zM424 549q0 -138 89 -203t232 -65q129 0 218.5 71t89.5 197q0 128 -89 204t-219 76q-145 0 -233 -69 t-88 -211z" />
<glyph unicode="r" horiz-adv-x="929" d="M102 0v1110h359v-111q122 142 334 142q46 0 114 -11l-78 -307q-37 11 -67 11q-137 0 -220 -69t-83 -198v-8v-559h-359z" />
<glyph unicode="s" horiz-adv-x="1382" d="M51 309l328 84q12 -31 34 -54t53 -36.5t60.5 -22.5t69.5 -12.5t66 -4.5t63 -1q244 0 244 78q0 8 -2 15t-7 12l-9 9t-13 7.5t-13.5 5.5t-15.5 4.5t-14.5 3t-15.5 2.5t-13 2q-40 6 -106 11.5t-124.5 9.5t-130 13.5t-129.5 23t-115.5 39t-97 60t-63.5 88.5t-24 122 q0 87 39.5 155t100.5 109t142.5 67.5t157.5 36t154 9.5q87 0 157.5 -7t144.5 -28.5t130.5 -56.5t106 -94.5t81.5 -139.5l-329 -82q-22 39 -56.5 64.5t-81 36t-83 13.5t-89.5 3q-215 0 -215 -86q0 -9 5 -16.5t15 -13.5t20.5 -11t26 -8.5t27.5 -6.5t29 -5t26 -3t23.5 -2.5 t16.5 -1.5q24 -2 78.5 -6.5t90 -7.5t92 -10t95 -15t89 -23t84.5 -32.5t70 -44t57.5 -58.5t35.5 -75t14 -94q0 -365 -629 -365q-64 0 -117.5 3t-114.5 12t-110.5 24t-99.5 41t-88.5 61t-70 85.5t-50.5 113.5z" />
<glyph unicode="t" horiz-adv-x="1136" d="M41 803v307h221v324h359v-324h389v-307h-389v-391q0 -119 161 -119q117 0 232 53l82 -303q-84 -34 -155 -48.5t-159 -14.5q-110 0 -200.5 22.5t-164 71t-114.5 133t-41 199.5v397h-221z" />
<glyph unicode="u" horiz-adv-x="1476" d="M82 522v588h358v-561q0 -262 267 -262q309 0 309 307v516h358v-1110h-358v100q-142 -120 -363 -120q-273 0 -422 136t-149 406z" />
<glyph unicode="v" horiz-adv-x="1456" d="M20 1110h404l303 -682l305 682h404l-541 -1110h-336z" />
<glyph unicode="w" horiz-adv-x="1986" d="M20 1110h377l197 -664l235 664h326l236 -664l196 664h379l-352 -1110h-387l-234 653l-233 -653h-389z" />
<glyph unicode="x" horiz-adv-x="1484" d="M0 0l514 565l-485 545h471l252 -297l258 297h469l-496 -545l502 -565h-469l-268 315l-277 -315h-471z" />
<glyph unicode="y" horiz-adv-x="1490" d="M20 1110h414l314 -692l313 692h409l-577 -1147q-36 -72 -65.5 -121t-72 -99t-88 -79.5t-109 -48t-140.5 -18.5q-92 0 -158 14.5t-151 52.5l81 309q119 -69 228 -69q49 0 90.5 36t62.5 85z" />
<glyph unicode="z" horiz-adv-x="1339" d="M82 0v266l663 537h-641v307h1147v-266l-639 -537h686v-307h-1216z" />
<glyph unicode="{" horiz-adv-x="966" d="M102 438v267h168q28 0 43 18.5t15 46.5q0 42 -18.5 88t-41 81t-41 84t-18.5 95q0 183 104 280t289 97h242v-307h-187q-48 0 -84 -34t-36 -83q0 -43 18 -89.5t39 -81.5t39 -84t18 -95q0 -44 -23.5 -84.5t-62.5 -63.5q37 -22 61.5 -63.5t24.5 -83.5q0 -46 -18 -95t-39 -84 t-39 -81.5t-18 -89.5q0 -49 36 -83t84 -34h187v-307h-242q-188 0 -290.5 95t-102.5 282q0 47 18.5 95.5t41 83t41 79.5t18.5 86q0 26 -16.5 45.5t-41.5 19.5h-168z" />
<glyph unicode="|" horiz-adv-x="768" d="M246 -307v2048h276v-2048h-276z" />
<glyph unicode="}" horiz-adv-x="966" d="M123 -41h186q48 0 84.5 34t36.5 83q0 43 -18 89.5t-39.5 81.5t-39.5 84t-18 95q0 42 24.5 83.5t61.5 63.5q-39 23 -62.5 63.5t-23.5 84.5q0 46 18 95t39.5 84t39.5 81.5t18 89.5q0 49 -36.5 83t-84.5 34h-186v307h242q185 0 289 -97t104 -280q0 -46 -18.5 -95t-41 -84 t-41 -81t-18.5 -88q0 -28 14.5 -46.5t42.5 -18.5h168v-267h-168q-25 0 -41 -19.5t-16 -45.5q0 -41 18.5 -86t41 -79.5t41 -83t18.5 -95.5q0 -187 -102.5 -282t-290.5 -95h-242v307z" />
<glyph unicode="~" horiz-adv-x="1232" d="M86 1075q0 184 88.5 281.5t247.5 97.5q67 0 125 -20t92 -44.5t78 -44.5t86 -20q54 0 84.5 28.5t30.5 80.5h229q0 -184 -89 -282.5t-251 -98.5q-54 0 -100.5 13.5t-78.5 32.5t-62 37.5t-64.5 32t-71.5 13.5q-53 0 -84 -28.5t-31 -78.5h-229z" />
<glyph unicode="&#xa1;" horiz-adv-x="684" d="M133 938q0 78 57 133t152 55q94 0 151.5 -55t57.5 -133q0 -79 -57.5 -133.5t-151.5 -54.5q-95 0 -152 54.5t-57 133.5zM135 -389l64 1034h282l64 -1034h-410z" />
<glyph unicode="&#xa2;" horiz-adv-x="1431" d="M61 707q0 121 40.5 221.5t112 170t164.5 114t204 63.5v158h313v-158q345 -53 475 -373l-340 -84q-42 91 -135 135v-489q103 45 139 145l342 -84q-116 -325 -481 -379v-147h-313v150q-111 17 -203.5 59.5t-164.5 109.5t-112.5 166.5t-40.5 221.5zM422 707q0 -182 160 -244 v495q-160 -65 -160 -251z" />
<glyph unicode="&#xa3;" horiz-adv-x="1673" d="M59 217q220 77 224 318h-197v225h147q-47 124 -47 207q0 96 35.5 177.5t94.5 137.5t136 95.5t160 58t166 18.5q111 0 203 -22.5t176 -72.5t149.5 -138.5t108.5 -212.5l-332 -86q-70 223 -305 223q-107 0 -177.5 -50.5t-70.5 -140.5q0 -72 35 -194h445v-225h-404 q0 -117 -41 -222q58 4 80 4q71 0 210.5 -26.5t211.5 -26.5q42 0 65 1.5t52.5 9t47 22.5t34 42.5t26.5 68.5l316 -78q-24 -95 -67.5 -164t-92.5 -108t-116.5 -61.5t-127 -29t-137.5 -6.5q-69 0 -206 25.5t-206 25.5q-230 0 -483 -73z" />
<glyph unicode="&#xa4;" horiz-adv-x="1927" d="M82 494v163h160q-2 20 -2 62q0 41 2 61h-160v164h186q47 173 170 290.5t289.5 170.5t370.5 53q182 0 327.5 -49t260 -160t176.5 -280l-342 -82q-47 135 -158 199.5t-262 64.5q-154 0 -269.5 -51.5t-173.5 -155.5h633l-57 -164h-623q-4 -40 -4 -61q0 -10 1 -31t1 -31h582 l-57 -163h-476q58 -106 173.5 -158.5t269.5 -52.5q70 0 132 11t121.5 36t105.5 71.5t71 110.5l338 -82q-179 -455 -770 -455q-152 0 -285 31.5t-243 93.5t-188.5 162.5t-113.5 231.5h-186z" />
<glyph unicode="&#xa5;" horiz-adv-x="1740" d="M41 1434h418l413 -594l410 594h418l-543 -756h367v-205h-473v-123h473v-205h-473v-145h-359v145h-473v205h473v123h-473v205h365z" />
<glyph unicode="&#xa6;" horiz-adv-x="768" d="M246 -307v854h276v-854h-276zM246 887v854h276v-854h-276z" />
<glyph unicode="&#xa7;" horiz-adv-x="1632" d="M49 567q0 114 109 211q-82 85 -82 215q0 103 45 185.5t117.5 134t170 85.5t196 48t202.5 14q92 0 167.5 -7t154.5 -24t143 -48t121.5 -77t102.5 -114.5t75 -155.5l-344 -84q-15 44 -42 78t-63 55.5t-74 36t-85 21.5t-86 9.5t-86 2.5q-44 0 -94 -5.5t-111.5 -19.5 t-101.5 -46t-40 -78q0 -41 39.5 -66.5t106.5 -36t153.5 -15.5t182 -10.5t191.5 -16t182.5 -36t153.5 -66t106.5 -111.5t39.5 -167q0 -114 -110 -213q84 -81 84 -213q0 -103 -45 -185.5t-117.5 -134t-170 -85.5t-196 -48t-202.5 -14q-92 0 -167.5 7t-154.5 24t-143 48 t-121.5 77t-102.5 114.5t-75 155.5l344 84q18 -52 54.5 -90.5t77.5 -59.5t97.5 -33t102.5 -15.5t104 -3.5q44 0 93.5 5.5t111.5 19.5t101.5 46t39.5 78q0 41 -39.5 66.5t-106.5 36t-153.5 15.5t-182.5 10.5t-191.5 15.5t-182 35.5t-153.5 66t-106.5 111.5t-39.5 167z M410 567q0 -47 48.5 -74t136.5 -38t183 -16t218 -15t212 -29q31 40 31 84q0 46 -48.5 73t-137 38t-184 16t-219 15t-212.5 28q-28 -31 -28 -82z" />
<glyph unicode="&#xa8;" horiz-adv-x="978" d="M82 1348q0 64 46.5 108.5t123.5 44.5q76 0 123 -44.5t47 -108.5q0 -65 -47 -109.5t-123 -44.5q-77 0 -123.5 44.5t-46.5 109.5zM557 1348q0 64 46.5 108.5t123.5 44.5q76 0 123 -44.5t47 -108.5q0 -65 -47 -109.5t-123 -44.5q-77 0 -123.5 44.5t-46.5 109.5z" />
<glyph unicode="&#xa9;" horiz-adv-x="1890" d="M82 715q0 182 69 328.5t188 239.5t274 142.5t331 49.5q177 0 332 -49t274.5 -142t188.5 -239.5t69 -329.5q0 -147 -45 -271t-125 -213t-189 -151.5t-236.5 -92.5t-268.5 -30t-268.5 30t-236 92.5t-188 151.5t-124.5 213t-45 271zM303 715q0 -138 50 -248t138 -179.5 t203.5 -106t249.5 -36.5t250 36.5t204 106t138.5 179.5t50.5 248t-50.5 247.5t-138.5 179t-204 106t-250 36.5q-137 0 -252.5 -36t-202.5 -105.5t-136.5 -179t-49.5 -248.5zM492 717q0 136 63.5 229.5t166 135.5t234.5 42q68 0 128.5 -14t116 -44t98 -83t63.5 -125l-162 -37 q-11 42 -36.5 73t-59.5 47.5t-70.5 24t-77.5 7.5q-136 0 -217.5 -64t-81.5 -192q0 -125 83 -190.5t216 -65.5q198 0 248 125l164 -29q-24 -70 -68.5 -120.5t-102 -77t-116.5 -38.5t-125 -12q-98 0 -181 24.5t-147 73.5t-100 128.5t-36 181.5z" />
<glyph unicode="&#xaa;" horiz-adv-x="1224" d="M102 801q0 61 22.5 109.5t59 79.5t86.5 51.5t102 29t109 8.5h355q0 51 -37.5 83t-82.5 42t-95 10q-78 0 -133.5 -17.5t-81.5 -70.5l-271 68q26 74 77 126.5t118.5 80.5t138 40.5t149.5 12.5q72 0 140.5 -12t135.5 -40t117 -69.5t80.5 -105t30.5 -142.5v-542h-286v65 q-52 -45 -134.5 -64.5t-152.5 -19.5q-45 0 -81.5 1.5t-85 8t-85.5 18t-75 32.5t-63 49.5t-41 71t-16 96.5zM399 823q0 -65 140 -65h43q36 0 73 4.5t81 15.5t72 37t28 62v18h-310q-127 0 -127 -72z" />
<glyph unicode="&#xab;" d="M143 408v297l746 419v-346l-428 -221l428 -223v-344zM889 408v297l745 419v-346l-430 -221l430 -223v-344z" />
<glyph unicode="&#xad;" horiz-adv-x="1085" d="M123 408v307h840v-307h-840z" />
<glyph unicode="&#xae;" horiz-adv-x="1890" d="M82 715q0 182 69 328.5t188 239.5t274 142.5t331 49.5q177 0 332 -49t274.5 -142t188.5 -239.5t69 -329.5q0 -147 -45 -271t-125 -213t-189 -151.5t-236.5 -92.5t-268.5 -30t-268.5 30t-236 92.5t-188 151.5t-124.5 213t-45 271zM303 715q0 -138 50 -248t138 -179.5 t203.5 -106t249.5 -36.5t250 36.5t204 106t138.5 179.5t50.5 248t-50.5 247.5t-138.5 179t-204 106t-250 36.5q-137 0 -252.5 -36t-202.5 -105.5t-136.5 -179t-49.5 -248.5zM573 334v768h488q114 0 195 -67.5t81 -180.5q0 -71 -41 -126.5t-110 -80.5q25 -11 47 -47l137 -266 h-180l-117 237q-13 26 -31 36.5t-49 10.5h-252v-284h-168zM741 745h316q44 0 77 31t33 74q0 48 -33 77t-81 29h-312v-211z" />
<glyph unicode="&#xaf;" horiz-adv-x="874" d="M82 1229v205h711v-205h-711z" />
<glyph unicode="&#xb0;" horiz-adv-x="1030" d="M102 1090q0 119 54.5 201t146 120.5t213.5 38.5q186 0 299 -91.5t113 -268.5q0 -173 -114 -263t-298 -90q-120 0 -211.5 37.5t-147 118.5t-55.5 197zM358 1092q0 -134 158 -134q156 0 156 134q0 137 -156 137q-158 0 -158 -137z" />
<glyph unicode="&#xb1;" horiz-adv-x="1187" d="M123 90v266h942v-266h-942zM123 776v266h338v338h266v-338h338v-266h-338v-338h-266v338h-338z" />
<glyph unicode="&#xb2;" horiz-adv-x="937" d="M80 676q0 192 103 299t292 125q82 8 111.5 26t29.5 48q0 40 -37.5 61.5t-103.5 21.5q-65 0 -117 -27.5t-71 -90.5l-203 49q17 68 57 119.5t94.5 80t113.5 42.5t122 14q54 0 104.5 -8.5t100 -29t85.5 -51.5t58.5 -79.5t22.5 -108.5q0 -41 -11 -73.5t-34 -55.5t-49 -39 t-66.5 -27.5t-74.5 -18t-85 -13.5q-75 -8 -127 -33t-53 -57h514v-174h-776z" />
<glyph unicode="&#xb3;" horiz-adv-x="962" d="M82 895l205 51q23 -54 68.5 -76t129.5 -22q162 0 162 80q0 33 -22.5 49t-57.5 16h-192v140h192q22 0 38 14t16 39q0 23 -16 39.5t-42 23.5t-48 10t-44 3q-69 0 -116.5 -28t-65.5 -75l-199 47q25 82 87.5 137.5t137 78t160.5 22.5q64 0 126 -13t120 -40.5t93.5 -79.5 t35.5 -121q0 -34 -21.5 -66t-56.5 -51q48 -14 78.5 -58.5t30.5 -90.5q0 -73 -38.5 -126t-101.5 -80.5t-127.5 -39.5t-132.5 -12q-71 0 -127.5 10t-111.5 34t-95.5 70.5t-64.5 114.5z" />
<glyph unicode="&#xb4;" horiz-adv-x="653" d="M82 1200l186 295h303l-284 -295h-205z" />
<glyph unicode="&#xb5;" horiz-adv-x="1486" d="M102 -385v1495h359v-502v-10q0 -156 90 -233.5t246 -77.5q239 0 239 233v590h359v-629q0 -259 -139.5 -380t-409.5 -121q-113 0 -215.5 32t-169.5 92v-489h-359z" />
<glyph unicode="&#xb6;" horiz-adv-x="1939" d="M102 1020q0 129 67.5 225t173 142.5t232.5 46.5h1119v-1844h-348v1536h-175v-1536h-348v1016h-295q-179 0 -302.5 118t-123.5 296z" />
<glyph unicode="&#xb7;" horiz-adv-x="684" d="M133 565q0 78 57 133.5t152 55.5q94 0 151.5 -55.5t57.5 -133.5q0 -79 -57.5 -133.5t-151.5 -54.5q-95 0 -152 54.5t-57 133.5z" />
<glyph unicode="&#xb8;" horiz-adv-x="761" d="M57 -293l195 60q31 -68 121 -68q98 0 98 59q0 57 -98 60h-97l76 182h140l-23 -68q105 0 173.5 -53t68.5 -125q0 -219 -336 -219q-114 0 -199 42.5t-119 129.5z" />
<glyph unicode="&#xb9;" horiz-adv-x="677" d="M41 1288l307 146h166v-758h-221v532l-178 -84z" />
<glyph unicode="&#xba;" horiz-adv-x="1298" d="M102 985q0 117 46.5 209t125.5 147.5t174.5 84t200.5 28.5t200.5 -28.5t174.5 -84t125.5 -147.5t46.5 -209q0 -118 -46.5 -209t-125 -144.5t-174 -80.5t-201.5 -27t-201.5 27t-174 80.5t-125 144.5t-46.5 209zM389 983q0 -103 68.5 -158t191.5 -55t191.5 55t68.5 158 q0 109 -68 167t-192 58t-192 -58t-68 -167z" />
<glyph unicode="&#xbb;" d="M102 -10v344l428 223l-428 221v346l746 -419v-297zM848 -10v344l428 223l-428 221v346l745 -419v-297z" />
<glyph unicode="&#xbc;" horiz-adv-x="1781" d="M82 1288l307 146h166v-758h-221v532l-178 -84zM184 -61l1141 1556h260l-1151 -1556h-250zM870 129v158l476 471h227v-455h127v-174h-127v-129h-221v129h-482zM1118 303h234v229z" />
<glyph unicode="&#xbd;" horiz-adv-x="1910" d="M82 1288l307 146h166v-758h-221v532l-178 -84zM168 -61l1141 1556h260l-1151 -1556h-250zM1053 0q0 192 103 299t292 125q82 8 111.5 26t29.5 48q0 41 -37.5 62.5t-103.5 21.5q-65 0 -117 -28t-71 -91l-203 49q17 68 57 119.5t94.5 80t113.5 42.5t122 14q54 0 104.5 -8.5 t100 -29t85.5 -51t58.5 -79t22.5 -108.5q0 -49 -17.5 -86.5t-44 -60t-72 -39.5t-85.5 -25t-101 -17q-75 -8 -127 -33t-53 -57h514v-174h-776z" />
<glyph unicode="&#xbe;" horiz-adv-x="1929" d="M82 895l205 51q23 -54 68.5 -76t129.5 -22q162 0 162 80q0 33 -22.5 49t-57.5 16h-192v140h192q22 0 38 14t16 39q0 23 -16 39.5t-42 23.5t-48 10t-44 3q-69 0 -116.5 -28t-65.5 -75l-199 47q25 82 87.5 137.5t137 78t160.5 22.5q64 0 126 -13t120 -40.5t93.5 -79.5 t35.5 -121q0 -34 -21.5 -66t-56.5 -51q48 -14 78.5 -58.5t30.5 -90.5q0 -73 -38.5 -126t-101.5 -80.5t-127.5 -39.5t-132.5 -12q-71 0 -127.5 10t-111.5 34t-95.5 70.5t-64.5 114.5zM332 -61l1141 1556h260l-1151 -1556h-250zM332 -61l1141 1556h260l-1151 -1556h-250z M1018 129v158l475 471h227v-455h127v-174h-127v-129h-221v129h-481zM1266 303h233v229z" />
<glyph unicode="&#xbf;" horiz-adv-x="1593" d="M82 109q0 56 11.5 101t30.5 75.5t49.5 55t61 38.5t72.5 27t78 21t83 20t81 24q86 28 112 68t29 135h266q17 -75 17 -166q0 -64 -22.5 -111.5t-59.5 -74.5t-84.5 -47t-97 -29.5t-97 -21t-84.5 -22.5t-59.5 -33t-22.5 -54q0 -41 27 -70.5t63.5 -45t87.5 -24t84.5 -10.5 t69.5 -2q321 0 371 180l342 -86q-23 -90 -77 -161.5t-124.5 -115.5t-160 -72.5t-175.5 -40t-178 -11.5q-77 0 -151.5 8t-155.5 26.5t-148 53t-122 82.5t-86 121t-31 162zM610 942q0 78 57 133t152 55q94 0 151.5 -55t57.5 -133q0 -79 -57.5 -133.5t-151.5 -54.5 q-95 0 -152 54.5t-57 133.5z" />
<glyph unicode="&#xc0;" d="M0 0l700 1434h379l699 -1434h-404l-145 307h-680l-146 -307h-403zM633 1819h303l186 -295h-204zM682 608h414l-205 453z" />
<glyph unicode="&#xc1;" d="M0 0l700 1434h379l699 -1434h-404l-145 307h-680l-146 -307h-403zM682 608h414l-205 453zM782 1524l187 295h303l-285 -295h-205z" />
<glyph unicode="&#xc2;" d="M0 0l700 1434h379l699 -1434h-404l-145 307h-680l-146 -307h-403zM551 1524l186 295h303l187 -295h-205l-133 137l-133 -137h-205zM682 608h414l-205 453z" />
<glyph unicode="&#xc3;" d="M0 0l700 1434h379l699 -1434h-404l-145 307h-680l-146 -307h-403zM489 1542q0 136 68 209.5t188 73.5q50 0 93 -16.5t68.5 -37t58 -37t63.5 -16.5q41 0 64.5 20t23.5 58h172q0 -137 -67.5 -211t-188.5 -74q-41 0 -75.5 11t-59 26.5t-46.5 31.5t-48 27t-53 11 q-39 0 -63.5 -20t-24.5 -56h-173zM682 608h414l-205 453z" />
<glyph unicode="&#xc4;" d="M0 0l700 1434h379l699 -1434h-404l-145 307h-680l-146 -307h-403zM481 1672q0 64 46.5 108.5t123.5 44.5q76 0 123 -44.5t47 -108.5q0 -65 -47 -109.5t-123 -44.5q-77 0 -123.5 44.5t-46.5 109.5zM682 608h414l-205 453zM956 1672q0 64 46.5 108.5t123.5 44.5 q76 0 123 -44.5t47 -108.5q0 -65 -47 -109.5t-123 -44.5q-77 0 -123.5 44.5t-46.5 109.5z" />
<glyph unicode="&#xc5;" d="M0 0l655 1341q-20 45 -20 93q0 100 73 151t181 51t180 -51t72 -151q0 -44 -21 -88l658 -1346h-404l-145 307h-680l-146 -307h-403zM682 608h414l-205 453zM793 1434q0 -68 96 -68q94 0 94 68q0 71 -94 71q-96 0 -96 -71z" />
<glyph unicode="&#xc6;" horiz-adv-x="2869" d="M20 0l1178 1434h1557v-308h-1033v-243h904v-308h-904v-268h1045v-307h-1403v307h-655l-248 -307h-441zM950 608h414v522q-78 -101 -224.5 -284.5t-189.5 -237.5z" />
<glyph unicode="&#xc7;" horiz-adv-x="1751" d="M61 719q0 151 44 274.5t122 209t186.5 143.5t235.5 85t271 27q182 0 327.5 -49t259.5 -160t176 -280l-342 -82q-47 135 -157.5 199.5t-261.5 64.5q-108 0 -196 -25t-156 -76t-105 -135.5t-37 -195.5q0 -112 37 -196.5t104 -136.5t156 -77.5t197 -25.5q70 0 132 11 t121.5 36t105.5 71.5t71 110.5l338 -82q-174 -441 -736 -455l-14 -43q105 0 173.5 -53t68.5 -125q0 -219 -336 -219q-114 0 -199 42.5t-119 129.5l195 60q31 -68 121 -68q98 0 98 59q0 57 -98 60h-96l67 162q-163 12 -298 62t-238 138.5t-160.5 226t-57.5 312.5z" />
<glyph unicode="&#xc8;" horiz-adv-x="1617" d="M123 0v1434h1390v-308h-1032v-243h903v-308h-903v-268h1045v-307h-1403zM563 1819h303l186 -295h-204z" />
<glyph unicode="&#xc9;" horiz-adv-x="1617" d="M123 0v1434h1390v-308h-1032v-243h903v-308h-903v-268h1045v-307h-1403zM707 1524l186 295h303l-285 -295h-204z" />
<glyph unicode="&#xca;" horiz-adv-x="1617" d="M123 0v1434h1390v-308h-1032v-243h903v-308h-903v-268h1045v-307h-1403zM512 1524l186 295h303l187 -295h-205l-133 137l-133 -137h-205z" />
<glyph unicode="&#xcb;" horiz-adv-x="1617" d="M123 0v1434h1390v-308h-1032v-243h903v-308h-903v-268h1045v-307h-1403zM442 1672q0 64 46.5 108.5t123.5 44.5q76 0 123 -44.5t47 -108.5q0 -65 -47 -109.5t-123 -44.5q-77 0 -123.5 44.5t-46.5 109.5zM917 1672q0 64 46.5 108.5t123.5 44.5q76 0 123 -44.5t47 -108.5 q0 -65 -47 -109.5t-123 -44.5q-77 0 -123.5 44.5t-46.5 109.5z" />
<glyph unicode="&#xcc;" horiz-adv-x="624" d="M68 1819h303l186 -295h-204zM133 0v1434h359v-1434h-359z" />
<glyph unicode="&#xcd;" horiz-adv-x="624" d="M133 0v1434h359v-1434h-359zM190 1524l187 295h303l-285 -295h-205z" />
<glyph unicode="&#xce;" horiz-adv-x="624" d="M-24 1524l186 295h303l187 -295h-205l-133 137l-133 -137h-205zM133 0v1434h359v-1434h-359z" />
<glyph unicode="&#xcf;" horiz-adv-x="624" d="M-94 1672q0 64 46.5 108.5t123.5 44.5q76 0 123 -44.5t47 -108.5q0 -65 -47 -109.5t-123 -44.5q-77 0 -123.5 44.5t-46.5 109.5zM133 0v1434h359v-1434h-359zM381 1672q0 64 46.5 108.5t123.5 44.5q76 0 123 -44.5t47 -108.5q0 -65 -47 -109.5t-123 -44.5 q-77 0 -123.5 44.5t-46.5 109.5z" />
<glyph unicode="&#xd0;" horiz-adv-x="1757" d="M0 614v205h123v615h725q143 0 266.5 -24t231.5 -78.5t185 -136t121 -203t44 -273.5q0 -147 -40.5 -267t-113 -203.5t-174.5 -140t-223 -82.5t-262 -26h-760v614h-123zM481 307h361q87 0 157.5 11.5t133.5 40.5t105.5 75t67.5 118t25 167t-25 167t-67 117t-106 73 t-133.5 39t-157.5 11h-361v-307h230v-205h-230v-307z" />
<glyph unicode="&#xd1;" horiz-adv-x="1802" d="M123 0v1434h469l682 -973q10 -14 22 -35t18 -35l7 -14v1057h358v-1434h-469l-682 973q-10 14 -22 35t-18 35l-7 14v-1057h-358zM502 1543q0 136 68 209t188 73q50 0 93 -16.5t68.5 -36.5t58 -36.5t63.5 -16.5q41 0 64.5 20t23.5 58h172q0 -137 -67.5 -211t-188.5 -74 q-49 0 -92 16.5t-67.5 36.5t-57.5 36.5t-66 16.5q-39 0 -63.5 -19.5t-24.5 -55.5h-172z" />
<glyph unicode="&#xd2;" horiz-adv-x="1847" d="M61 719q0 149 44.5 272.5t123.5 210.5t187.5 146.5t235.5 87.5t270 28t270.5 -28t237 -87.5t188.5 -146t123.5 -210t44.5 -273.5q0 -151 -44.5 -275t-123.5 -211.5t-188 -147.5t-236.5 -88t-271.5 -28t-271.5 28.5t-236 88.5t-187 147.5t-122.5 211.5t-44 274zM424 719 q0 -113 37 -198.5t104.5 -137t157 -77t199.5 -25.5t199.5 25.5t157.5 77t105 137t37 198.5t-37.5 197.5t-105.5 135.5t-157 76t-199 25q-228 0 -363 -106.5t-135 -327.5zM678 1819h303l186 -295h-204z" />
<glyph unicode="&#xd3;" horiz-adv-x="1847" d="M61 719q0 149 44.5 272.5t123.5 210.5t187.5 146.5t235.5 87.5t270 28t270.5 -28t237 -87.5t188.5 -146t123.5 -210t44.5 -273.5q0 -151 -44.5 -275t-123.5 -211.5t-188 -147.5t-236.5 -88t-271.5 -28t-271.5 28.5t-236 88.5t-187 147.5t-122.5 211.5t-44 274zM424 719 q0 -113 37 -198.5t104.5 -137t157 -77t199.5 -25.5t199.5 25.5t157.5 77t105 137t37 198.5t-37.5 197.5t-105.5 135.5t-157 76t-199 25q-228 0 -363 -106.5t-135 -327.5zM678 1524l186 295h303l-284 -295h-205z" />
<glyph unicode="&#xd4;" horiz-adv-x="1847" d="M61 719q0 149 44.5 272.5t123.5 210.5t187.5 146.5t235.5 87.5t270 28t270.5 -28t237 -87.5t188.5 -146t123.5 -210t44.5 -273.5q0 -151 -44.5 -275t-123.5 -211.5t-188 -147.5t-236.5 -88t-271.5 -28t-271.5 28.5t-236 88.5t-187 147.5t-122.5 211.5t-44 274zM424 719 q0 -113 37 -198.5t104.5 -137t157 -77t199.5 -25.5t199.5 25.5t157.5 77t105 137t37 198.5t-37.5 197.5t-105.5 135.5t-157 76t-199 25q-228 0 -363 -106.5t-135 -327.5zM586 1524l186 295h303l187 -295h-205l-133 137l-133 -137h-205z" />
<glyph unicode="&#xd5;" horiz-adv-x="1847" d="M61 719q0 149 44.5 272.5t123.5 210.5t187.5 146.5t235.5 87.5t270 28t270.5 -28t237 -87.5t188.5 -146t123.5 -210t44.5 -273.5q0 -151 -44.5 -275t-123.5 -211.5t-188 -147.5t-236.5 -88t-271.5 -28t-271.5 28.5t-236 88.5t-187 147.5t-122.5 211.5t-44 274zM424 719 q0 -113 37 -198.5t104.5 -137t157 -77t199.5 -25.5t199.5 25.5t157.5 77t105 137t37 198.5t-37.5 197.5t-105.5 135.5t-157 76t-199 25q-228 0 -363 -106.5t-135 -327.5zM524 1542q0 136 68 209.5t188 73.5q50 0 93 -16.5t68.5 -37t58 -37t63.5 -16.5q41 0 64.5 20t23.5 58 h172q0 -137 -67.5 -211t-188.5 -74q-41 0 -76 11t-59 26.5t-46.5 31.5t-48.5 27t-53 11q-39 0 -63.5 -20t-24.5 -56h-172z" />
<glyph unicode="&#xd6;" horiz-adv-x="1847" d="M61 719q0 149 44.5 272.5t123.5 210.5t187.5 146.5t235.5 87.5t270 28t270.5 -28t237 -87.5t188.5 -146t123.5 -210t44.5 -273.5q0 -151 -44.5 -275t-123.5 -211.5t-188 -147.5t-236.5 -88t-271.5 -28t-271.5 28.5t-236 88.5t-187 147.5t-122.5 211.5t-44 274zM424 719 q0 -113 37 -198.5t104.5 -137t157 -77t199.5 -25.5t199.5 25.5t157.5 77t105 137t37 198.5t-37.5 197.5t-105.5 135.5t-157 76t-199 25q-228 0 -363 -106.5t-135 -327.5zM516 1672q0 64 46.5 108.5t123.5 44.5q76 0 123 -44.5t47 -108.5q0 -65 -47 -109.5t-123 -44.5 q-77 0 -123.5 44.5t-46.5 109.5zM991 1672q0 64 46.5 108.5t123.5 44.5q76 0 123 -44.5t47 -108.5q0 -65 -47 -109.5t-123 -44.5q-77 0 -123.5 44.5t-46.5 109.5z" />
<glyph unicode="&#xd7;" horiz-adv-x="1142" d="M123 301l260 260l-260 260l188 189l260 -260l260 260l189 -189l-260 -260l260 -260l-189 -188l-260 260l-260 -260z" />
<glyph unicode="&#xd8;" horiz-adv-x="1886" d="M61 719q0 149 44.5 272.5t123.5 210.5t187.5 146.5t235.5 87.5t270 28q313 0 530 -127l98 97h254l-211 -205q193 -196 193 -510q0 -151 -44.5 -275t-123.5 -211.5t-188 -147.5t-236.5 -88t-271.5 -28q-296 0 -508 117l-90 -86h-242l192 186q-213 197 -213 533zM424 719 q0 -181 96 -291l686 670q-119 55 -284 55q-228 0 -363 -106.5t-135 -327.5zM662 328q105 -47 260 -47q110 0 199.5 25.5t157.5 77t105 137t37 198.5q0 160 -78 268z" />
<glyph unicode="&#xd9;" horiz-adv-x="1757" d="M113 678v756h358v-762q0 -213 88.5 -299t317.5 -86t319 86.5t90 298.5v762h359v-756q0 -192 -47 -326t-145 -216t-238.5 -119t-337.5 -37q-392 0 -578 162.5t-186 535.5zM592 1819h303l186 -295h-204z" />
<glyph unicode="&#xda;" horiz-adv-x="1757" d="M113 678v756h358v-762q0 -213 88.5 -299t317.5 -86t319 86.5t90 298.5v762h359v-756q0 -192 -47 -326t-145 -216t-238.5 -119t-337.5 -37q-392 0 -578 162.5t-186 535.5zM756 1524l186 295h303l-284 -295h-205z" />
<glyph unicode="&#xdb;" horiz-adv-x="1757" d="M113 678v756h358v-762q0 -213 88.5 -299t317.5 -86t319 86.5t90 298.5v762h359v-756q0 -192 -47 -326t-145 -216t-238.5 -119t-337.5 -37q-392 0 -578 162.5t-186 535.5zM541 1524l186 295h303l187 -295h-205l-133 137l-133 -137h-205z" />
<glyph unicode="&#xdc;" horiz-adv-x="1757" d="M113 678v756h358v-762q0 -213 88.5 -299t317.5 -86t319 86.5t90 298.5v762h359v-756q0 -192 -47 -326t-145 -216t-238.5 -119t-337.5 -37q-392 0 -578 162.5t-186 535.5zM471 1672q0 64 46.5 108.5t123.5 44.5q76 0 123 -44.5t47 -108.5q0 -65 -47 -109.5t-123 -44.5 q-77 0 -123.5 44.5t-46.5 109.5zM946 1672q0 64 46.5 108.5t123.5 44.5q76 0 123 -44.5t47 -108.5q0 -65 -47 -109.5t-123 -44.5q-77 0 -123.5 44.5t-46.5 109.5z" />
<glyph unicode="&#xdd;" horiz-adv-x="1658" d="M0 1434h418l413 -594l410 594h418l-649 -906v-528h-359v528zM680 1524l186 295h303l-284 -295h-205z" />
<glyph unicode="&#xde;" horiz-adv-x="1652" d="M123 0v1434h358v-246h584q106 0 199 -29t167 -85t117 -148t43 -209q0 -88 -29 -164.5t-79 -132t-116 -95t-141.5 -59.5t-154.5 -20h-590v-246h-358zM481 553h578q73 0 123.5 45.5t50.5 118.5q0 77 -50.5 120.5t-129.5 43.5h-572v-328z" />
<glyph unicode="&#xdf;" horiz-adv-x="1480" d="M123 0v993q0 125 44.5 222.5t123.5 157.5t181.5 91t223.5 31q88 0 167.5 -13.5t154.5 -46t129.5 -81.5t87.5 -124.5t33 -170.5q0 -67 -27 -129t-78 -99q141 -43 220 -137.5t79 -238.5q0 -121 -40.5 -213.5t-114 -149t-169.5 -84.5t-214 -28q-206 0 -342 51l77 305 q109 -49 256 -49q185 0 185 168q0 88 -63.5 130t-157.5 42h-220l-77 297h219q121 0 121 129q0 40 -21.5 68.5t-57 42t-70 19t-71.5 5.5q-99 0 -160 -49t-61 -146v-993h-358z" />
<glyph unicode="&#xe0;" horiz-adv-x="1427" d="M61 322q0 95 41.5 165t112 108.5t150.5 56.5t170 18h442q0 48 -26 83t-69 53t-86 26t-87 8q-97 0 -166.5 -22.5t-102.5 -88.5l-338 86q32 92 96.5 158t149 100.5t172.5 50t187 15.5q90 0 176.5 -15t169.5 -50t144.5 -86.5t99.5 -131.5t38 -178v-678h-358v82 q-64 -57 -167.5 -82t-191.5 -25q-57 0 -102.5 2t-105.5 10.5t-106 22.5t-94 40.5t-79 62t-50.5 89t-19.5 120.5zM428 1495h303l186 -295h-204zM432 350q0 -82 174 -82h53q45 0 91.5 5.5t102 20t90 46.5t34.5 78v22h-385q-160 0 -160 -90z" />
<glyph unicode="&#xe1;" horiz-adv-x="1427" d="M61 322q0 95 41.5 165t112 108.5t150.5 56.5t170 18h442q0 48 -26 83t-69 53t-86 26t-87 8q-97 0 -166.5 -22.5t-102.5 -88.5l-338 86q32 92 96.5 158t149 100.5t172.5 50t187 15.5q90 0 176.5 -15t169.5 -50t144.5 -86.5t99.5 -131.5t38 -178v-678h-358v82 q-64 -57 -167.5 -82t-191.5 -25q-57 0 -102.5 2t-105.5 10.5t-106 22.5t-94 40.5t-79 62t-50.5 89t-19.5 120.5zM432 350q0 -82 174 -82h53q45 0 91.5 5.5t102 20t90 46.5t34.5 78v22h-385q-160 0 -160 -90zM569 1200l187 295h303l-285 -295h-205z" />
<glyph unicode="&#xe2;" horiz-adv-x="1427" d="M61 322q0 95 41.5 165t112 108.5t150.5 56.5t170 18h442q0 48 -26 83t-69 53t-86 26t-87 8q-97 0 -166.5 -22.5t-102.5 -88.5l-338 86q32 92 96.5 158t149 100.5t172.5 50t187 15.5q90 0 176.5 -15t169.5 -50t144.5 -86.5t99.5 -131.5t38 -178v-678h-358v82 q-64 -57 -167.5 -82t-191.5 -25q-57 0 -102.5 2t-105.5 10.5t-106 22.5t-94 40.5t-79 62t-50.5 89t-19.5 120.5zM375 1200l186 295h303l187 -295h-205l-133 137l-133 -137h-205zM432 350q0 -82 174 -82h53q45 0 91.5 5.5t102 20t90 46.5t34.5 78v22h-385q-160 0 -160 -90z " />
<glyph unicode="&#xe3;" horiz-adv-x="1427" d="M61 322q0 95 41.5 165t112 108.5t150.5 56.5t170 18h442q0 48 -26 83t-69 53t-86 26t-87 8q-97 0 -166.5 -22.5t-102.5 -88.5l-338 86q32 92 96.5 158t149 100.5t172.5 50t187 15.5q90 0 176.5 -15t169.5 -50t144.5 -86.5t99.5 -131.5t38 -178v-678h-358v82 q-64 -57 -167.5 -82t-191.5 -25q-57 0 -102.5 2t-105.5 10.5t-106 22.5t-94 40.5t-79 62t-50.5 89t-19.5 120.5zM313 1219q0 136 68 209t188 73q50 0 93 -16.5t68.5 -36.5t58 -36.5t63.5 -16.5q41 0 64.5 20t23.5 58h172q0 -137 -67.5 -211t-188.5 -74q-49 0 -92 16.5 t-67.5 36.5t-57.5 36.5t-66 16.5q-39 0 -63.5 -19.5t-24.5 -55.5h-172zM432 350q0 -82 174 -82h53q45 0 91.5 5.5t102 20t90 46.5t34.5 78v22h-385q-160 0 -160 -90z" />
<glyph unicode="&#xe4;" horiz-adv-x="1427" d="M61 322q0 95 41.5 165t112 108.5t150.5 56.5t170 18h442q0 48 -26 83t-69 53t-86 26t-87 8q-97 0 -166.5 -22.5t-102.5 -88.5l-338 86q32 92 96.5 158t149 100.5t172.5 50t187 15.5q90 0 176.5 -15t169.5 -50t144.5 -86.5t99.5 -131.5t38 -178v-678h-358v82 q-64 -57 -167.5 -82t-191.5 -25q-57 0 -102.5 2t-105.5 10.5t-106 22.5t-94 40.5t-79 62t-50.5 89t-19.5 120.5zM305 1348q0 64 46.5 108.5t123.5 44.5q76 0 123 -44.5t47 -108.5q0 -65 -47 -109.5t-123 -44.5q-77 0 -123.5 44.5t-46.5 109.5zM432 350q0 -82 174 -82h53 q45 0 91.5 5.5t102 20t90 46.5t34.5 78v22h-385q-160 0 -160 -90zM780 1348q0 64 46.5 108.5t123.5 44.5q76 0 123 -44.5t47 -108.5q0 -65 -47 -109.5t-123 -44.5q-77 0 -123.5 44.5t-46.5 109.5z" />
<glyph unicode="&#xe5;" horiz-adv-x="1427" d="M61 322q0 95 41.5 165t112 108.5t150.5 56.5t170 18h442q0 48 -26 83t-69 53t-86 26t-87 8q-97 0 -166.5 -22.5t-102.5 -88.5l-338 86q32 92 96.5 158t149 100.5t172.5 50t187 15.5q90 0 176.5 -15t169.5 -50t144.5 -86.5t99.5 -131.5t38 -178v-678h-358v82 q-64 -57 -167.5 -82t-191.5 -25q-57 0 -102.5 2t-105.5 10.5t-106 22.5t-94 40.5t-79 62t-50.5 89t-19.5 120.5zM432 350q0 -82 174 -82h53q45 0 91.5 5.5t102 20t90 46.5t34.5 78v22h-385q-160 0 -160 -90zM461 1386q0 100 73 151.5t181 51.5t180 -51.5t72 -151.5 q0 -99 -72.5 -148.5t-179.5 -49.5t-180.5 49.5t-73.5 148.5zM618 1386q0 -67 97 -67q94 0 94 67q0 72 -94 72q-48 0 -72.5 -19.5t-24.5 -52.5z" />
<glyph unicode="&#xe6;" horiz-adv-x="2342" d="M61 322q0 95 41.5 165t112 108.5t150.5 56.5t170 18h442q0 48 -26 83t-69 53t-86 26t-87 8q-97 0 -166.5 -22.5t-102.5 -88.5l-338 86q32 92 96.5 158t149 100.5t172.5 50t187 15.5q132 0 257 -34t214 -104q182 129 440 129q137 0 256 -37t210.5 -107.5t144 -183.5 t52.5 -255v-92h-958q15 -87 93.5 -135t205.5 -48q144 0 213.5 30.5t101.5 105.5l334 -84q-40 -104 -99 -172.5t-143 -106t-179.5 -51.5t-229.5 -14q-293 0 -477 147q-185 -147 -479 -147q-77 0 -131 2t-122 9.5t-114 21.5t-94 39.5t-77 61t-47 88.5t-18 120zM432 350 q0 -82 174 -82h53q45 0 91.5 5.5t102 20t90 46.5t34.5 78v22h-385q-160 0 -160 -90zM1335 682h557q-18 50 -67 86.5t-103.5 52t-107.5 15.5q-94 0 -174 -41t-105 -113z" />
<glyph unicode="&#xe7;" horiz-adv-x="1406" d="M51 549q0 114 36 209.5t99.5 163.5t149 115.5t184.5 70t207 22.5q478 0 633 -385l-340 -83q-36 84 -115.5 125.5t-177.5 41.5q-141 0 -228 -70.5t-87 -209.5q0 -137 87 -202.5t228 -65.5q234 0 297 172l342 -84q-36 -98 -92 -170.5t-129 -117t-156.5 -68t-183.5 -29.5 l-17 -52q105 0 173.5 -53t68.5 -125q0 -219 -336 -219q-114 0 -198.5 42.5t-118.5 129.5l194 60q31 -68 121 -68q99 0 99 59q0 57 -99 60h-96l68 164q-101 6 -191 30t-168 70t-134 111t-88 156t-32 200z" />
<glyph unicode="&#xe8;" horiz-adv-x="1431" d="M51 547q0 113 35.5 208.5t97 163.5t146 116t182.5 71.5t205 23.5q137 0 256 -37t210.5 -107.5t144 -183.5t52.5 -255v-92h-958q15 -88 94 -139.5t205 -51.5q227 0 289 127l342 -86q-43 -100 -100 -164.5t-138 -99.5t-172.5 -48t-222.5 -13q-137 0 -256.5 35.5t-212 103.5 t-146 178.5t-53.5 249.5zM434 680h557q-29 76 -100 116t-178 40q-98 0 -175 -42t-104 -114zM471 1495h303l186 -295h-204z" />
<glyph unicode="&#xe9;" horiz-adv-x="1431" d="M51 547q0 113 35.5 208.5t97 163.5t146 116t182.5 71.5t205 23.5q137 0 256 -37t210.5 -107.5t144 -183.5t52.5 -255v-92h-958q15 -88 94 -139.5t205 -51.5q227 0 289 127l342 -86q-43 -100 -100 -164.5t-138 -99.5t-172.5 -48t-222.5 -13q-137 0 -256.5 35.5t-212 103.5 t-146 178.5t-53.5 249.5zM434 680h557q-29 76 -100 116t-178 40q-98 0 -175 -42t-104 -114zM471 1200l186 295h304l-285 -295h-205z" />
<glyph unicode="&#xea;" horiz-adv-x="1431" d="M51 547q0 113 35.5 208.5t97 163.5t146 116t182.5 71.5t205 23.5q137 0 256 -37t210.5 -107.5t144 -183.5t52.5 -255v-92h-958q15 -88 94 -139.5t205 -51.5q227 0 289 127l342 -86q-43 -100 -100 -164.5t-138 -99.5t-172.5 -48t-222.5 -13q-137 0 -256.5 35.5t-212 103.5 t-146 178.5t-53.5 249.5zM377 1200l186 295h303l187 -295h-205l-133 137l-133 -137h-205zM434 680h557q-29 76 -100 116t-178 40q-98 0 -175 -42t-104 -114z" />
<glyph unicode="&#xeb;" horiz-adv-x="1431" d="M51 547q0 113 35.5 208.5t97 163.5t146 116t182.5 71.5t205 23.5q137 0 256 -37t210.5 -107.5t144 -183.5t52.5 -255v-92h-958q15 -88 94 -139.5t205 -51.5q227 0 289 127l342 -86q-43 -100 -100 -164.5t-138 -99.5t-172.5 -48t-222.5 -13q-137 0 -256.5 35.5t-212 103.5 t-146 178.5t-53.5 249.5zM307 1348q0 64 46.5 108.5t123.5 44.5q76 0 123 -44.5t47 -108.5q0 -65 -47 -109.5t-123 -44.5q-77 0 -123.5 44.5t-46.5 109.5zM434 680h557q-29 76 -100 116t-178 40q-98 0 -175 -42t-104 -114zM782 1348q0 64 46.5 108.5t123.5 44.5 q76 0 123 -44.5t47 -108.5q0 -65 -47 -109.5t-123 -44.5q-77 0 -123.5 44.5t-46.5 109.5z" />
<glyph unicode="&#xec;" horiz-adv-x="602" d="M57 1495h303l186 -295h-204zM129 0v1110h358v-1110h-358z" />
<glyph unicode="&#xed;" horiz-adv-x="602" d="M129 0v1110h358v-1110h-358zM180 1200l187 295h303l-285 -295h-205z" />
<glyph unicode="&#xee;" horiz-adv-x="602" d="M-37 1200l186 295h303l187 -295h-205l-133 137l-133 -137h-205zM129 0v1110h358v-1110h-358z" />
<glyph unicode="&#xef;" horiz-adv-x="602" d="M-106 1348q0 64 46.5 108.5t123.5 44.5q76 0 123 -44.5t47 -108.5q0 -65 -47 -109.5t-123 -44.5q-77 0 -123.5 44.5t-46.5 109.5zM129 0v1110h358v-1110h-358zM369 1348q0 64 46.5 108.5t123.5 44.5q76 0 123 -44.5t47 -108.5q0 -65 -47 -109.5t-123 -44.5 q-77 0 -123.5 44.5t-46.5 109.5z" />
<glyph unicode="&#xf0;" horiz-adv-x="1701" d="M82 471q0 77 23 142.5t62 112.5t94 84t116.5 60t132.5 38.5t138 21.5t138 6q260 0 480 -109q-15 132 -105 226l-106 -84l-78 104l72 55q-93 41 -205 41q-177 0 -273 -53l-102 279q156 59 377 59q267 0 459 -123l114 92l78 -104l-88 -70q211 -208 211 -563 q0 -706 -768 -706q-73 0 -139 4t-146.5 17.5t-146.5 35t-130.5 59.5t-109 88t-71.5 123.5t-27 163.5zM444 489q0 -47 30.5 -84t75.5 -58.5t102 -35.5t104.5 -19t89.5 -5q56 0 114.5 7.5t125.5 26.5t109 59.5t42 98.5q0 44 -30.5 79.5t-75.5 56.5t-101.5 35t-103 19t-84.5 5 q-191 0 -294.5 -49.5t-103.5 -135.5z" />
<glyph unicode="&#xf1;" horiz-adv-x="1486" d="M102 0v1110h359v-104q68 60 169 92t214 32q130 0 229 -27t172.5 -85.5t111.5 -156t38 -232.5v-629h-359v588q0 235 -239 235q-156 0 -246 -77.5t-90 -233.5v-10v-502h-359zM391 1219q0 136 68 209t188 73q50 0 93 -16.5t68.5 -36.5t58 -36.5t63.5 -16.5q41 0 64.5 20 t23.5 58h172q0 -137 -67.5 -211t-188.5 -74q-49 0 -92 16.5t-67.5 36.5t-57.5 36.5t-66 16.5q-39 0 -63.5 -19.5t-24.5 -55.5h-172z" />
<glyph unicode="&#xf2;" horiz-adv-x="1449" d="M41 551q0 117 38.5 215t104 165.5t153.5 114.5t185.5 69t202.5 22t202.5 -22t185.5 -69t153.5 -114.5t104 -165.5t38.5 -215q0 -119 -38.5 -216.5t-103.5 -163.5t-153 -111.5t-185.5 -66t-203.5 -20.5t-203.5 20.5t-185.5 66t-153 111.5t-103.5 163.5t-38.5 216.5z M399 549q0 -130 86 -199t240 -69t240 69t86 199q0 135 -85.5 207.5t-240.5 72.5t-240.5 -72.5t-85.5 -207.5zM479 1495h303l186 -295h-204z" />
<glyph unicode="&#xf3;" horiz-adv-x="1449" d="M41 551q0 117 38.5 215t104 165.5t153.5 114.5t185.5 69t202.5 22t202.5 -22t185.5 -69t153.5 -114.5t104 -165.5t38.5 -215q0 -119 -38.5 -216.5t-103.5 -163.5t-153 -111.5t-185.5 -66t-203.5 -20.5t-203.5 20.5t-185.5 66t-153 111.5t-103.5 163.5t-38.5 216.5z M399 549q0 -130 86 -199t240 -69t240 69t86 199q0 135 -85.5 207.5t-240.5 72.5t-240.5 -72.5t-85.5 -207.5zM606 1200l187 295h303l-285 -295h-205z" />
<glyph unicode="&#xf4;" horiz-adv-x="1449" d="M41 551q0 117 38.5 215t104 165.5t153.5 114.5t185.5 69t202.5 22t202.5 -22t185.5 -69t153.5 -114.5t104 -165.5t38.5 -215q0 -119 -38.5 -216.5t-103.5 -163.5t-153 -111.5t-185.5 -66t-203.5 -20.5t-203.5 20.5t-185.5 66t-153 111.5t-103.5 163.5t-38.5 216.5z M387 1200l186 295h303l187 -295h-205l-133 137l-133 -137h-205zM399 549q0 -130 86 -199t240 -69t240 69t86 199q0 135 -85.5 207.5t-240.5 72.5t-240.5 -72.5t-85.5 -207.5z" />
<glyph unicode="&#xf5;" horiz-adv-x="1449" d="M41 551q0 117 38.5 215t104 165.5t153.5 114.5t185.5 69t202.5 22t202.5 -22t185.5 -69t153.5 -114.5t104 -165.5t38.5 -215q0 -119 -38.5 -216.5t-103.5 -163.5t-153 -111.5t-185.5 -66t-203.5 -20.5t-203.5 20.5t-185.5 66t-153 111.5t-103.5 163.5t-38.5 216.5z M326 1219q0 136 68 209t188 73q50 0 93 -16.5t68 -36.5t57.5 -36.5t63.5 -16.5q41 0 64.5 20t23.5 58h172q0 -137 -67.5 -211t-188.5 -74q-49 0 -91.5 16.5t-67 36.5t-57.5 36.5t-66 16.5q-39 0 -63.5 -19.5t-24.5 -55.5h-172zM399 549q0 -130 86 -199t240 -69t240 69 t86 199q0 135 -85.5 207.5t-240.5 72.5t-240.5 -72.5t-85.5 -207.5z" />
<glyph unicode="&#xf6;" horiz-adv-x="1449" d="M41 551q0 117 38.5 215t104 165.5t153.5 114.5t185.5 69t202.5 22t202.5 -22t185.5 -69t153.5 -114.5t104 -165.5t38.5 -215q0 -119 -38.5 -216.5t-103.5 -163.5t-153 -111.5t-185.5 -66t-203.5 -20.5t-203.5 20.5t-185.5 66t-153 111.5t-103.5 163.5t-38.5 216.5z M318 1348q0 64 46.5 108.5t123.5 44.5q76 0 123 -44.5t47 -108.5q0 -65 -47 -109.5t-123 -44.5q-77 0 -123.5 44.5t-46.5 109.5zM399 549q0 -130 86 -199t240 -69t240 69t86 199q0 135 -85.5 207.5t-240.5 72.5t-240.5 -72.5t-85.5 -207.5zM793 1348q0 64 46.5 108.5 t123.5 44.5q76 0 123 -44.5t47 -108.5q0 -65 -47 -109.5t-123 -44.5q-77 0 -123.5 44.5t-46.5 109.5z" />
<glyph unicode="&#xf7;" horiz-adv-x="1187" d="M123 428v266h942v-266h-942zM403 199q0 70 51 119t136 49q84 0 135 -49t51 -119q0 -71 -51 -120.5t-135 -49.5q-85 0 -136 49t-51 121zM403 930q0 70 51 119t136 49q84 0 135 -49t51 -119q0 -71 -51 -120.5t-135 -49.5q-85 0 -136 49t-51 121z" />
<glyph unicode="&#xf8;" horiz-adv-x="1495" d="M61 551q0 114 37 210.5t101 165t150.5 116.5t186.5 71t209 23q216 0 392 -93l67 66h230l-164 -160q160 -153 160 -399q0 -115 -37 -211.5t-101 -163t-151.5 -113t-187 -68.5t-208.5 -22q-220 0 -391 86l-61 -59h-221l153 150q-164 151 -164 401zM420 549q0 -97 49 -160 l426 418q-65 22 -150 22q-147 0 -236 -69t-89 -211zM602 301q64 -20 143 -20q54 0 101.5 9t89 29t71.5 50.5t47 76t17 103.5q0 100 -45 164z" />
<glyph unicode="&#xf9;" horiz-adv-x="1476" d="M82 522v588h358v-561q0 -262 267 -262q309 0 309 307v516h358v-1110h-358v100q-142 -120 -363 -120q-273 0 -422 136t-149 406zM397 1495h303l186 -295h-204z" />
<glyph unicode="&#xfa;" horiz-adv-x="1476" d="M82 522v588h358v-561q0 -262 267 -262q309 0 309 307v516h358v-1110h-358v100q-142 -120 -363 -120q-273 0 -422 136t-149 406zM590 1200l186 295h303l-284 -295h-205z" />
<glyph unicode="&#xfb;" horiz-adv-x="1476" d="M82 522v588h358v-561q0 -262 267 -262q309 0 309 307v516h358v-1110h-358v100q-142 -120 -363 -120q-273 0 -422 136t-149 406zM399 1200l186 295h303l187 -295h-205l-133 137l-133 -137h-205z" />
<glyph unicode="&#xfc;" horiz-adv-x="1476" d="M82 522v588h358v-561q0 -262 267 -262q309 0 309 307v516h358v-1110h-358v100q-142 -120 -363 -120q-273 0 -422 136t-149 406zM309 1348q0 64 46.5 108.5t123.5 44.5q76 0 123 -44.5t47 -108.5q0 -65 -47 -109.5t-123 -44.5q-77 0 -123.5 44.5t-46.5 109.5zM784 1348 q0 64 46.5 108.5t123.5 44.5q76 0 123 -44.5t47 -108.5q0 -65 -47 -109.5t-123 -44.5q-77 0 -123.5 44.5t-46.5 109.5z" />
<glyph unicode="&#xfd;" horiz-adv-x="1490" d="M20 1110h414l314 -692l313 692h409l-577 -1147q-36 -72 -65.5 -121t-72 -99t-88 -79.5t-109 -48t-140.5 -18.5q-92 0 -158 14.5t-151 52.5l81 309q119 -69 228 -69q49 0 90.5 36t62.5 85zM621 1200l186 295h303l-285 -295h-204z" />
<glyph unicode="&#xfe;" horiz-adv-x="1513" d="M102 -385v1880h359v-481q130 116 366 116q134 0 246.5 -36t197.5 -105.5t133 -181.5t48 -256q0 -143 -48 -253.5t-133 -179t-197.5 -103.5t-246.5 -35q-234 0 -366 112v-477h-359zM461 549q0 -126 89 -197t218 -71q143 0 232.5 65t89.5 203q0 142 -88 211t-234 69 q-129 0 -218 -76t-89 -204z" />
<glyph unicode="&#xff;" horiz-adv-x="1490" d="M20 1110h414l314 -692l313 692h409l-577 -1147q-36 -72 -65.5 -121t-72 -99t-88 -79.5t-109 -48t-140.5 -18.5q-92 0 -158 14.5t-151 52.5l81 309q119 -69 228 -69q49 0 90.5 36t62.5 85zM338 1348q0 64 46.5 108.5t123.5 44.5q76 0 123 -44.5t47 -108.5 q0 -65 -47 -109.5t-123 -44.5q-77 0 -123.5 44.5t-46.5 109.5zM813 1348q0 64 46.5 108.5t123.5 44.5q76 0 123 -44.5t47 -108.5q0 -65 -47 -109.5t-123 -44.5q-77 0 -123.5 44.5t-46.5 109.5z" />
<glyph unicode="&#x152;" horiz-adv-x="2887" d="M61 719q0 149 44.5 272.5t123.5 210.5t187.5 146.5t235.5 87.5t270 28q270 0 481 -112v82h1370v-308h-1012v-243h883v-308h-883v-268h1024v-307h-1382v82q-213 -113 -481 -113q-144 0 -271.5 28.5t-236 88.5t-187 147.5t-122.5 211.5t-44 274zM424 719q0 -113 37 -198.5 t104.5 -137t157 -77t199.5 -25.5t199.5 25.5t158 77t106 137t37.5 198.5t-37.5 197.5t-106.5 135.5t-158 76t-199 25t-198.5 -25t-156.5 -76t-105.5 -135.5t-37.5 -197.5z" />
<glyph unicode="&#x153;" horiz-adv-x="2461" d="M61 551q0 114 37 210.5t101 165t150.5 116.5t186.5 71t209 23q143 0 275.5 -41.5t230.5 -128.5q189 163 486 163q138 0 257 -37t210 -108t143.5 -183.5t52.5 -254.5v-92h-958q9 -51 39 -88t73.5 -57t90 -29t96.5 -9q45 0 76 1.5t72 9t69.5 21.5t55.5 40.5t42 63.5 l334 -84q-29 -75 -67.5 -131.5t-88.5 -93.5t-102 -61t-120 -36.5t-130 -17t-143 -4.5q-305 0 -490 155q-190 -162 -504 -162q-109 0 -208.5 22t-186.5 68.5t-151 113t-101 163t-37 211.5zM420 549q0 -71 25.5 -124.5t71.5 -84t102.5 -45t125.5 -14.5q54 0 101.5 9t89 29 t71.5 50.5t47 76t17 103.5q0 142 -89.5 211t-236.5 69t-236 -69t-89 -211zM1454 682h557q-27 73 -109.5 113.5t-168.5 40.5q-56 0 -110 -15t-102.5 -51.5t-66.5 -87.5z" />
<glyph unicode="&#x178;" horiz-adv-x="1658" d="M0 1434h418l413 -594l410 594h418l-649 -906v-528h-359v528zM422 1671q0 64 46.5 109t123.5 45q76 0 123 -45t47 -109q0 -65 -47 -109t-123 -44q-77 0 -123.5 44t-46.5 109zM897 1671q0 64 46.5 109t123.5 45q76 0 123 -45t47 -109q0 -65 -47 -109t-123 -44 q-77 0 -123.5 44t-46.5 109z" />
<glyph unicode="&#x2c6;" horiz-adv-x="839" d="M82 1200l186 295h303l187 -295h-205l-133 137l-133 -137h-205z" />
<glyph unicode="&#x2dc;" horiz-adv-x="962" d="M82 1219q0 136 68 209t188 73q50 0 93 -16.5t68.5 -36.5t58 -36.5t63.5 -16.5q41 0 64.5 20t23.5 58h172q0 -137 -67.5 -211t-188.5 -74q-49 0 -92 16.5t-67.5 36.5t-57.5 36.5t-66 16.5q-39 0 -63.5 -19.5t-24.5 -55.5h-172z" />
<glyph unicode="&#x2000;" horiz-adv-x="912" />
<glyph unicode="&#x2001;" horiz-adv-x="1825" />
<glyph unicode="&#x2002;" horiz-adv-x="912" />
<glyph unicode="&#x2003;" horiz-adv-x="1825" />
<glyph unicode="&#x2004;" horiz-adv-x="608" />
<glyph unicode="&#x2005;" horiz-adv-x="456" />
<glyph unicode="&#x2006;" horiz-adv-x="304" />
<glyph unicode="&#x2007;" horiz-adv-x="304" />
<glyph unicode="&#x2008;" horiz-adv-x="228" />
<glyph unicode="&#x2009;" horiz-adv-x="365" />
<glyph unicode="&#x200a;" horiz-adv-x="101" />
<glyph unicode="&#x2010;" horiz-adv-x="1085" d="M123 408v307h840v-307h-840z" />
<glyph unicode="&#x2011;" horiz-adv-x="1085" d="M123 408v307h840v-307h-840z" />
<glyph unicode="&#x2012;" horiz-adv-x="1085" d="M123 408v307h840v-307h-840z" />
<glyph unicode="&#x2013;" horiz-adv-x="1392" d="M143 408v307h1106v-307h-1106z" />
<glyph unicode="&#x2014;" horiz-adv-x="1761" d="M143 408v307h1475v-307h-1475z" />
<glyph unicode="&#x2018;" horiz-adv-x="581" d="M82 1085q0 131 57.5 230.5t177.5 179.5l86 -100q-92 -58 -112 -121q95 0 152 -55t57 -134q0 -78 -57 -133t-152 -55q-94 0 -151.5 55t-57.5 133z" />
<glyph unicode="&#x2019;" horiz-adv-x="581" d="M82 1266q0 78 57 133t152 55q94 0 151.5 -55t57.5 -133q0 -131 -58 -230.5t-178 -179.5l-86 100q94 59 113 121q-95 0 -152 55t-57 134z" />
<glyph unicode="&#x201a;" horiz-adv-x="581" d="M82 172q0 78 57 133t152 55q94 0 151.5 -55t57.5 -133q0 -131 -58 -230.5t-178 -179.5l-86 101q94 59 113 121q-95 0 -152 54.5t-57 133.5z" />
<glyph unicode="&#x201c;" horiz-adv-x="1093" d="M82 1085q0 131 57.5 230.5t177.5 179.5l86 -100q-92 -58 -112 -121q95 0 152 -55t57 -134q0 -78 -57 -133t-152 -55q-94 0 -151.5 55t-57.5 133zM594 1085q0 131 57.5 230.5t177.5 179.5l86 -100q-92 -58 -112 -121q95 0 152 -55t57 -134q0 -78 -57 -133t-152 -55 q-94 0 -151.5 55t-57.5 133z" />
<glyph unicode="&#x201d;" horiz-adv-x="1093" d="M82 1266q0 78 57 133t152 55q94 0 151.5 -55t57.5 -133q0 -131 -58 -230.5t-178 -179.5l-86 100q94 59 113 121q-95 0 -152 55t-57 134zM594 1266q0 78 57 133t152 55q94 0 151.5 -55t57.5 -133q0 -131 -58 -230.5t-178 -179.5l-86 100q94 59 113 121q-95 0 -152 55 t-57 134z" />
<glyph unicode="&#x201e;" horiz-adv-x="1093" d="M82 172q0 78 57 133t152 55q94 0 151.5 -55t57.5 -133q0 -131 -58 -230.5t-178 -179.5l-86 101q94 59 113 121q-95 0 -152 54.5t-57 133.5zM594 172q0 78 57 133t152 55q94 0 151.5 -55t57.5 -133q0 -131 -58 -230.5t-178 -179.5l-86 101q94 59 113 121q-95 0 -152 54.5 t-57 133.5z" />
<glyph unicode="&#x2022;" horiz-adv-x="882" d="M164 557q0 115 81 196t197 81t196.5 -81t80.5 -196q0 -116 -81 -197t-196 -81q-116 0 -197 81.5t-81 196.5z" />
<glyph unicode="&#x2026;" horiz-adv-x="1658" d="M88 168q0 78 57 133t152 55q94 0 151.5 -55t57.5 -133q0 -79 -57.5 -133.5t-151.5 -54.5q-95 0 -152 54.5t-57 133.5zM621 168q0 78 56.5 133t151.5 55q94 0 151.5 -55t57.5 -133q0 -79 -57.5 -133.5t-151.5 -54.5q-95 0 -151.5 54.5t-56.5 133.5zM1153 168q0 78 57 133 t152 55q94 0 151.5 -55t57.5 -133q0 -79 -57.5 -133.5t-151.5 -54.5q-95 0 -152 54.5t-57 133.5z" />
<glyph unicode="&#x202f;" horiz-adv-x="365" />
<glyph unicode="&#x2039;" horiz-adv-x="991" d="M123 408v297l745 419v-346l-428 -221l428 -223v-344z" />
<glyph unicode="&#x203a;" horiz-adv-x="991" d="M123 -10v344l428 223l-428 221v346l745 -419v-297z" />
<glyph unicode="&#x205f;" horiz-adv-x="456" />
<glyph unicode="&#x20ac;" horiz-adv-x="1927" d="M82 494v163h160q-2 20 -2 62q0 41 2 61h-160v164h186q47 173 170 290.5t289.5 170.5t370.5 53q182 0 327.5 -49t260 -160t176.5 -280l-342 -82q-47 135 -158 199.5t-262 64.5q-154 0 -269.5 -51.5t-173.5 -155.5h633l-57 -164h-623q-4 -40 -4 -61q0 -10 1 -31t1 -31h582 l-57 -163h-476q58 -106 173.5 -158.5t269.5 -52.5q70 0 132 11t121.5 36t105.5 71.5t71 110.5l338 -82q-179 -455 -770 -455q-152 0 -285 31.5t-243 93.5t-188.5 162.5t-113.5 231.5h-186z" />
<glyph unicode="&#x2122;" horiz-adv-x="1540" d="M61 1329v105h611v-105h-244v-432h-123v432h-244zM743 897v537h146l190 -375l193 375h145v-537h-125v322q-16 -33 -166 -322h-94q-110 212 -164 320v-320h-125z" />
<glyph unicode="&#x25fc;" horiz-adv-x="1105" d="M0 0v1106h1106v-1106h-1106z" />
</font>
</defs>
</svg>
